<svg id="svg" version="1.1" xmlns="http://www.w3.org/2000/svg" xmlns:xlink="http://www.w3.org/1999/xlink" width="400" height="400" viewBox="0, 0, 400,400"><g id="svgg"><path id="path0" d="M191.000 40.030 C 137.053 43.254,89.297 72.564,61.524 119.497 C 37.344 160.357,33.038 214.947,50.614 257.800 C 53.622 265.134,54.216 266.456,56.994 271.998 C 88.689 335.227,158.477 370.077,228.400 357.592 C 245.549 354.530,268.455 346.126,280.308 338.548 C 281.467 337.806,282.503 337.200,282.609 337.200 C 282.810 337.200,290.033 332.459,292.409 330.767 C 363.649 280.051,381.381 183.116,332.712 110.442 C 330.166 106.640,328.378 104.209,324.444 99.200 C 293.792 60.174,241.548 37.009,191.000 40.030 M209.212 59.200 L 211.277 65.600 218.015 65.600 C 225.583 65.600,225.945 65.738,223.287 67.616 C 218.115 71.271,214.400 74.176,214.402 74.566 C 214.403 74.805,215.282 77.747,216.355 81.105 C 217.428 84.463,218.192 87.279,218.053 87.363 C 217.837 87.494,210.195 82.206,208.383 80.672 C 208.043 80.385,207.559 80.022,207.308 79.866 C 207.046 79.705,204.487 81.306,201.330 83.608 C 198.294 85.821,195.748 87.445,195.672 87.216 C 195.596 86.987,196.467 83.999,197.608 80.575 C 199.596 74.611,199.652 74.326,198.942 73.797 C 198.534 73.494,196.094 71.750,193.520 69.923 C 190.946 68.095,188.890 66.420,188.952 66.200 C 189.019 65.964,191.825 65.718,195.792 65.600 L 202.518 65.400 204.379 59.591 C 206.133 54.118,206.641 52.800,206.998 52.800 C 207.080 52.800,208.077 55.680,209.212 59.200 M139.485 67.456 C 139.560 67.680,138.941 68.209,138.110 68.631 C 134.300 70.571,123.711 77.829,119.906 81.111 C 93.000 104.315,79.679 129.566,75.546 165.200 C 69.138 220.453,104.152 276.000,157.200 294.739 C 223.970 318.324,297.093 282.681,318.734 216.000 C 329.618 182.466,325.620 142.017,308.781 115.281 C 295.906 94.840,281.548 80.253,264.419 70.211 C 258.494 66.738,259.891 66.938,267.246 70.617 C 309.980 91.991,338.588 133.629,344.872 183.600 C 345.718 190.329,345.585 213.760,344.668 219.600 C 338.943 256.042,322.395 286.772,296.400 309.235 C 294.530 310.851,292.910 312.284,292.800 312.419 C 292.291 313.046,283.432 319.524,280.016 321.768 C 232.177 353.187,167.933 353.309,120.200 322.070 C 33.552 265.362,31.901 138.059,117.055 79.689 C 120.883 77.066,125.399 74.251,129.400 71.995 C 138.995 66.585,139.169 66.507,139.485 67.456 M156.055 96.444 C 159.275 100.162,159.612 105.385,159.043 142.800 C 158.276 193.208,162.560 213.250,175.383 219.251 C 187.035 224.703,194.033 213.296,196.028 185.600 C 197.319 167.662,195.474 129.662,192.585 114.697 C 190.839 105.655,191.020 105.079,197.494 99.044 C 203.152 93.769,202.336 91.477,204.814 119.600 C 211.885 199.844,199.344 240.560,171.821 226.714 C 155.450 218.478,150.814 193.537,154.661 134.400 C 155.852 116.102,155.446 103.050,153.579 99.561 C 152.008 96.625,140.672 111.198,134.414 124.200 C 126.925 139.761,126.457 152.647,133.098 160.406 C 134.910 162.524,134.112 162.463,132.192 160.338 C 122.941 150.099,125.428 131.258,138.702 111.007 C 148.490 96.075,152.686 92.554,156.055 96.444 M233.826 105.859 C 234.142 111.326,234.519 124.899,234.663 136.021 L 234.925 156.241 238.982 156.723 C 242.817 157.179,249.253 158.615,251.726 159.567 C 254.129 160.491,254.000 161.254,254.000 146.082 C 254.000 129.961,253.460 117.079,252.549 111.443 C 251.365 104.120,251.482 103.850,257.932 99.065 C 262.916 95.368,262.568 95.392,263.133 98.700 C 265.291 111.332,265.543 134.299,263.762 156.147 L 263.114 164.093 265.718 166.747 C 274.954 176.156,275.601 185.603,268.364 205.355 C 263.494 218.646,260.901 222.400,256.589 222.400 C 253.596 222.400,252.331 220.043,251.545 213.000 C 251.088 208.907,251.144 207.156,252.167 193.600 C 252.887 184.049,253.749 164.166,253.474 163.449 C 252.850 161.823,234.814 158.203,234.793 159.700 C 234.524 178.436,231.332 202.003,227.791 211.400 C 222.676 224.975,214.205 228.227,203.100 220.880 C 199.429 218.451,199.323 217.227,202.985 219.549 C 209.187 223.483,216.365 223.006,219.978 218.420 C 225.550 211.348,227.587 198.369,227.596 169.900 L 227.600 158.400 220.920 158.400 C 216.592 158.400,214.377 158.263,214.629 158.011 C 215.016 157.624,220.474 156.655,224.928 156.182 L 227.257 155.935 227.038 153.468 C 226.918 152.110,226.716 149.380,226.589 147.400 C 225.846 135.812,224.151 120.041,222.956 113.600 C 221.586 106.213,222.177 104.162,226.696 100.625 C 232.319 96.226,233.007 95.710,233.126 95.811 C 233.195 95.870,233.510 100.391,233.826 105.859 M262.652 168.835 C 261.860 171.430,258.956 199.080,258.602 207.400 L 258.346 213.400 259.180 212.400 C 260.500 210.816,264.597 202.183,266.109 197.800 C 269.390 188.286,269.738 179.866,267.079 174.338 C 265.505 171.064,262.943 167.881,262.652 168.835 M320.822 217.777 C 320.197 218.441,319.669 219.879,319.168 222.277 C 318.118 227.298,318.046 227.048,320.700 227.546 C 321.965 227.783,325.847 228.612,329.327 229.389 C 332.807 230.165,335.809 230.800,335.998 230.800 C 336.513 230.800,337.403 226.435,336.967 226.048 C 336.765 225.870,335.025 225.403,333.100 225.011 C 330.746 224.531,329.600 224.118,329.600 223.749 C 329.600 223.059,329.827 223.070,334.130 223.969 C 336.661 224.498,337.706 224.579,337.820 224.254 C 338.124 223.386,338.826 219.893,338.714 219.807 C 338.218 219.430,331.563 218.485,330.686 218.667 C 329.973 218.815,329.325 218.679,328.886 218.289 C 327.007 216.619,322.196 216.314,320.822 217.777 M324.780 222.033 C 326.654 222.435,327.239 222.882,326.493 223.342 C 325.906 223.705,322.400 222.669,322.400 222.133 C 322.400 221.492,322.282 221.497,324.780 222.033 M78.506 224.923 C 77.378 225.262,77.224 225.470,77.306 226.542 C 77.398 227.746,77.342 227.787,74.600 228.498 C 72.338 229.084,65.459 231.098,63.333 231.796 C 62.776 231.979,64.060 236.638,64.641 236.539 C 64.838 236.506,68.020 235.634,71.712 234.601 C 78.627 232.666,79.600 232.592,79.600 233.995 C 79.600 234.687,79.773 234.774,80.700 234.554 C 82.741 234.068,82.744 234.045,81.425 229.321 C 79.977 224.133,80.170 224.423,78.506 224.923 M316.242 233.435 C 315.369 236.204,313.943 235.368,327.900 240.277 C 328.835 240.606,329.600 241.128,329.600 241.438 C 329.600 242.115,329.554 242.118,328.126 241.558 C 325.221 240.417,315.824 237.200,315.395 237.200 C 315.130 237.200,314.544 238.201,314.094 239.424 L 313.274 241.648 314.337 242.054 C 318.712 243.725,328.158 246.800,328.918 246.800 C 330.686 246.800,333.600 241.935,333.600 238.982 C 333.600 237.397,320.503 231.200,317.154 231.200 C 317.040 231.200,316.629 232.206,316.242 233.435 M255.200 234.758 C 256.970 235.250,256.404 236.180,254.200 236.400 L 252.200 236.600 252.298 240.400 C 252.698 256.003,254.059 257.956,263.118 255.937 C 265.947 255.306,265.979 255.056,263.356 254.052 C 260.348 252.901,259.596 252.967,258.269 254.496 L 257.137 255.800 257.353 254.243 C 257.875 250.470,261.006 249.882,267.325 252.370 C 269.121 253.076,271.192 253.600,272.192 253.600 C 274.318 253.600,274.536 254.065,273.460 256.300 C 272.817 257.635,272.424 258.000,271.631 258.000 C 271.075 258.000,267.916 258.738,264.610 259.640 C 252.417 262.966,251.293 261.671,250.563 243.462 C 250.200 234.400,250.679 233.500,255.200 234.758 M82.200 238.415 C 81.760 238.614,78.255 240.117,74.411 241.754 C 66.612 245.078,66.843 244.877,67.950 247.381 C 68.902 249.532,69.121 249.561,72.600 248.000 C 75.508 246.695,77.229 246.402,76.447 247.344 C 76.199 247.643,74.467 248.478,72.598 249.201 C 70.729 249.923,69.200 250.557,69.200 250.609 C 69.200 250.661,69.660 251.708,70.223 252.937 L 71.245 255.171 73.123 254.427 C 76.846 252.954,87.008 248.717,87.673 248.361 C 88.306 248.022,88.296 247.864,87.530 246.098 C 86.363 243.408,86.460 243.433,82.890 244.938 C 80.298 246.031,79.606 246.192,79.432 245.740 C 79.302 245.400,79.571 245.032,80.108 244.818 C 83.900 243.303,85.655 242.492,85.663 242.254 C 85.667 242.100,85.350 241.080,84.957 239.987 C 84.227 237.957,83.779 237.702,82.200 238.415 M184.360 241.567 C 184.790 241.839,184.856 242.462,184.645 244.255 C 184.318 247.039,184.048 247.387,182.691 246.769 C 180.888 245.947,179.010 246.630,176.599 248.984 C 173.604 251.908,173.710 252.097,178.836 252.968 C 186.722 254.308,176.292 268.468,167.815 267.929 C 160.275 267.448,156.292 253.097,162.559 248.990 C 164.571 247.672,164.977 248.561,163.406 250.845 C 157.010 260.144,169.036 267.391,177.957 259.614 C 179.136 258.586,179.057 258.504,176.397 257.999 C 171.397 257.051,171.263 250.599,176.134 245.294 C 178.570 242.641,182.933 240.664,184.360 241.567 M216.809 243.900 C 217.153 254.779,218.095 256.613,223.285 256.510 C 228.011 256.416,228.163 255.719,223.600 255.060 C 222.616 254.918,222.910 252.003,223.997 251.122 C 225.726 249.722,232.703 250.528,233.345 252.201 C 233.459 252.498,233.368 253.405,233.144 254.218 C 232.034 258.236,237.440 257.292,240.303 252.968 C 244.388 246.796,249.895 249.231,247.799 256.281 C 246.758 259.781,246.058 260.106,242.257 258.852 L 239.990 258.104 238.442 259.652 C 236.465 261.630,234.194 261.799,231.765 260.150 L 230.219 259.101 227.609 259.938 C 221.741 261.821,218.669 261.331,217.000 258.247 C 216.375 257.092,216.025 256.821,215.400 257.007 C 213.480 257.578,209.600 257.698,209.006 257.205 C 206.919 255.473,209.263 250.646,213.355 248.248 C 214.783 247.411,215.159 246.942,215.390 245.713 C 215.739 243.852,216.767 242.539,216.809 243.900 M196.963 246.999 C 197.323 247.549,198.772 248.728,200.182 249.619 C 206.560 253.647,205.980 260.516,199.273 260.385 C 197.363 260.347,194.810 260.522,193.600 260.774 C 192.390 261.025,190.794 261.182,190.053 261.121 C 188.771 261.017,188.670 261.109,187.950 263.039 C 186.712 266.358,183.722 268.000,178.916 268.000 C 176.412 268.000,176.769 267.552,180.914 265.494 C 187.056 262.445,187.615 261.744,185.800 259.364 C 185.037 258.365,184.800 257.572,184.800 256.027 C 184.800 253.700,184.873 253.654,186.454 254.984 C 189.306 257.384,192.909 256.943,193.250 254.153 C 193.461 252.422,194.918 247.287,195.477 246.300 C 195.789 245.749,196.302 245.991,196.963 246.999 M311.154 247.554 C 310.232 248.282,306.464 255.409,306.823 255.745 C 306.920 255.836,310.634 257.726,315.076 259.945 L 323.151 263.979 324.229 261.776 C 324.822 260.565,325.238 259.511,325.153 259.435 C 325.069 259.359,324.055 258.822,322.900 258.241 C 320.666 257.119,320.498 256.778,321.400 255.200 C 322.908 252.562,321.759 250.654,317.347 248.466 C 313.603 246.609,312.547 246.453,311.154 247.554 M156.061 250.188 C 157.838 256.634,155.387 261.200,150.150 261.200 C 148.277 261.200,148.063 261.293,147.833 262.210 C 147.115 265.072,143.624 267.200,139.646 267.200 C 137.041 267.200,137.381 266.546,140.891 264.811 C 142.711 263.911,144.713 262.754,145.341 262.240 L 146.482 261.304 144.955 261.018 C 141.216 260.317,139.673 256.290,142.182 253.782 C 143.669 252.295,146.012 252.958,147.365 255.249 C 148.086 256.469,148.130 256.483,150.850 256.329 C 154.731 256.110,155.500 255.340,154.364 252.811 C 153.607 251.127,153.581 248.658,154.307 247.439 C 154.628 246.902,155.556 248.356,156.061 250.188 M212.495 251.011 C 210.118 252.611,209.935 253.043,211.500 253.358 C 213.989 253.859,215.388 253.139,215.523 251.286 C 215.677 249.179,215.270 249.142,212.495 251.011 M136.703 252.300 C 140.208 259.908,136.815 266.000,129.074 266.000 C 124.946 266.000,125.033 265.334,129.418 263.380 C 135.995 260.450,136.952 259.265,135.412 255.958 C 134.433 253.854,134.152 251.911,134.643 250.633 C 135.074 249.509,135.622 249.952,136.703 252.300 M315.210 253.005 C 317.866 254.343,318.316 254.751,317.751 255.315 C 317.248 255.819,311.466 252.540,311.827 251.956 C 312.137 251.454,312.119 251.448,315.210 253.005 M82.792 256.227 C 78.726 258.525,75.148 260.561,74.840 260.752 C 74.380 261.037,76.907 266.699,78.224 268.332 C 78.309 268.438,79.196 267.951,80.729 266.958 C 80.801 266.912,80.576 266.327,80.229 265.657 C 79.883 264.988,79.600 264.296,79.600 264.120 C 79.601 263.775,83.578 261.431,83.774 261.661 C 83.839 261.738,84.103 262.206,84.361 262.702 C 84.951 263.835,87.435 262.894,87.087 261.670 C 86.983 261.301,86.831 260.746,86.749 260.434 C 86.617 259.935,89.259 258.025,90.106 258.007 C 90.275 258.003,90.713 258.630,91.081 259.400 C 91.867 261.048,92.038 261.086,93.354 259.900 L 94.353 259.000 92.477 255.732 C 91.445 253.935,90.506 252.371,90.392 252.257 C 90.277 252.143,86.857 253.930,82.792 256.227 M195.189 252.821 C 194.145 254.772,195.678 256.778,197.177 255.421 C 198.195 254.500,198.227 253.530,197.269 252.662 C 196.297 251.783,195.721 251.827,195.189 252.821 M242.623 253.962 C 242.500 254.162,243.210 254.601,244.200 254.938 C 246.057 255.571,246.466 255.323,245.371 254.229 C 244.688 253.545,242.983 253.380,242.623 253.962 M199.453 254.281 C 198.467 255.266,199.560 256.400,201.495 256.400 C 202.514 256.400,202.517 256.392,201.766 255.563 C 200.826 254.523,199.786 253.947,199.453 254.281 M302.844 261.651 C 302.143 262.780,301.621 263.731,301.685 263.766 C 301.748 263.801,303.600 265.014,305.800 266.461 C 308.000 267.908,311.060 269.862,312.600 270.803 C 314.140 271.744,315.794 272.771,316.275 273.086 C 317.100 273.626,317.213 273.561,318.271 271.929 C 318.888 270.978,319.569 270.075,319.785 269.922 C 320.000 269.769,320.092 269.579,319.988 269.499 C 319.885 269.420,317.280 267.757,314.200 265.804 C 311.120 263.851,307.681 261.656,306.559 260.926 C 304.030 259.284,304.356 259.220,302.844 261.651 M266.600 261.776 L 267.800 262.748 267.000 264.269 C 266.023 266.128,265.354 266.293,263.816 265.055 L 262.633 264.102 263.377 262.451 C 264.236 260.546,264.908 260.405,266.600 261.776 M158.300 262.377 C 159.409 263.303,159.434 264.211,158.396 265.913 C 157.548 267.305,156.916 267.268,155.139 265.722 C 154.549 265.209,154.398 265.279,153.752 266.373 C 152.899 267.818,152.154 267.900,150.223 266.760 C 148.529 265.761,148.462 265.190,149.829 263.397 C 150.934 261.949,151.343 261.937,153.302 263.294 L 154.404 264.057 155.102 262.831 C 155.906 261.420,156.971 261.268,158.300 262.377 M156.446 267.274 C 158.249 268.287,158.258 268.326,157.192 270.416 C 156.297 272.170,156.059 272.258,154.451 271.426 C 152.400 270.366,152.235 269.845,153.381 268.030 C 154.585 266.123,154.455 266.155,156.446 267.274 M298.068 269.329 C 297.033 269.922,292.394 275.569,292.425 276.200 C 292.445 276.602,292.963 277.031,301.779 283.956 L 306.561 287.712 307.709 286.356 C 309.990 283.659,310.271 284.205,304.076 279.299 C 303.678 278.983,303.584 278.657,303.821 278.419 C 304.059 278.181,305.359 278.940,307.321 280.466 C 309.038 281.800,310.489 282.826,310.547 282.746 C 310.604 282.666,311.303 281.785,312.101 280.789 L 313.550 278.979 311.096 277.015 C 309.747 275.935,308.053 274.849,307.332 274.601 C 306.611 274.353,305.612 273.548,305.111 272.812 C 303.056 269.794,299.945 268.255,298.068 269.329 M100.770 270.636 C 100.480 270.986,97.864 273.249,94.958 275.664 C 87.801 281.613,87.625 282.160,91.432 286.616 C 94.570 290.290,95.036 290.168,102.947 283.603 C 109.622 278.064,109.233 278.715,107.213 276.482 L 105.658 274.763 99.929 279.574 C 94.643 284.013,93.200 284.973,93.200 284.049 C 93.200 283.856,95.710 281.605,98.778 279.047 C 105.509 273.433,105.068 274.134,103.279 271.892 C 101.614 269.805,101.505 269.750,100.770 270.636 M300.207 274.859 C 301.132 275.672,301.504 276.256,301.254 276.506 C 301.004 276.756,300.465 276.522,299.737 275.847 C 299.116 275.271,298.471 274.800,298.304 274.800 C 298.137 274.800,298.000 274.530,298.000 274.200 C 298.000 273.286,298.629 273.474,300.207 274.859 M189.094 275.696 C 191.028 277.495,190.645 280.825,187.980 285.385 C 186.306 288.250,186.327 288.368,188.500 288.189 C 189.999 288.066,190.000 288.067,190.000 289.633 L 190.000 291.200 186.000 291.200 L 182.000 291.200 181.998 289.900 C 181.997 289.096,182.937 286.747,184.460 283.749 C 185.939 280.836,186.824 278.639,186.674 278.249 C 186.239 277.114,185.653 277.548,185.524 279.100 C 185.404 280.556,185.350 280.604,183.700 280.723 L 182.000 280.846 182.000 278.997 C 182.000 274.916,186.170 272.976,189.094 275.696 M198.848 275.444 C 201.036 277.423,200.979 288.628,198.772 290.626 C 197.522 291.756,193.888 291.666,192.697 290.475 C 191.388 289.165,191.309 277.430,192.600 275.995 C 194.118 274.307,197.284 274.028,198.848 275.444 M216.013 275.029 C 218.497 275.716,218.578 279.898,216.193 284.340 C 214.014 288.400,214.018 288.258,216.069 288.226 C 217.708 288.200,217.738 288.224,217.769 289.600 L 217.800 291.000 213.700 291.114 L 209.600 291.228 209.600 290.004 C 209.600 289.292,210.621 286.787,212.036 284.025 C 214.375 279.461,214.752 278.050,213.726 277.708 C 213.428 277.609,213.204 278.118,213.126 279.075 C 212.938 281.354,209.600 281.740,209.600 279.483 C 209.600 275.374,211.781 273.859,216.013 275.029 M207.200 283.022 L 207.200 291.244 205.300 291.122 L 203.400 291.000 203.200 285.417 C 203.001 279.861,202.995 279.833,202.000 279.599 C 200.786 279.314,200.604 277.200,201.794 277.200 C 202.120 277.200,202.975 276.665,203.694 276.012 C 204.463 275.312,205.452 274.819,206.100 274.812 L 207.200 274.800 207.200 283.022 M195.600 283.000 C 195.600 286.333,195.753 288.400,196.000 288.400 C 196.247 288.400,196.400 286.333,196.400 283.000 C 196.400 279.667,196.247 277.600,196.000 277.600 C 195.753 277.600,195.600 279.667,195.600 283.000 M284.887 283.627 C 282.307 286.109,282.033 286.511,282.487 287.147 C 282.769 287.542,285.332 290.867,288.183 294.536 L 293.366 301.206 295.258 299.343 L 297.149 297.480 296.113 296.122 C 294.673 294.234,295.423 293.444,297.220 294.955 L 298.488 296.023 300.206 294.511 C 302.760 292.265,303.497 293.299,293.319 284.851 C 287.537 280.053,288.463 280.187,284.887 283.627 M110.623 282.900 C 109.785 283.900,102.423 291.904,100.700 293.688 C 99.273 295.166,99.294 295.285,101.288 297.145 L 102.976 298.720 103.719 297.860 C 108.262 292.605,109.393 292.162,106.455 296.789 L 104.410 300.011 106.053 301.505 C 106.957 302.327,107.820 303.048,107.971 303.107 C 108.262 303.222,110.608 300.818,116.880 293.980 L 120.751 289.759 118.815 288.091 L 116.878 286.423 114.557 289.066 C 111.883 292.112,111.306 291.900,113.393 288.638 C 115.491 285.359,115.493 285.333,113.772 283.572 C 111.995 281.751,111.648 281.677,110.623 282.900 M293.529 291.883 C 293.600 292.167,293.483 292.400,293.269 292.400 C 292.764 292.400,287.200 286.448,287.200 285.909 C 287.200 285.383,293.357 291.195,293.529 291.883 M275.600 291.838 C 274.610 292.624,273.739 293.329,273.664 293.404 C 273.589 293.478,274.444 294.750,275.564 296.229 C 276.684 297.709,277.600 299.072,277.600 299.260 C 277.600 300.231,276.388 299.299,274.648 296.990 C 272.375 293.973,272.627 294.055,270.479 295.635 C 268.305 297.233,268.001 296.493,274.231 304.753 L 279.661 311.955 281.631 310.540 C 284.013 308.828,284.039 309.358,281.400 305.852 C 279.320 303.088,278.789 302.000,279.522 302.000 C 279.698 302.000,280.806 303.266,281.983 304.814 C 283.159 306.362,284.282 307.727,284.478 307.848 C 284.981 308.159,288.413 305.496,288.219 304.945 C 288.058 304.486,277.664 290.397,277.492 290.404 C 277.441 290.406,276.590 291.051,275.600 291.838 M122.670 294.700 C 121.897 295.745,120.122 298.130,118.725 300.000 C 117.328 301.870,115.511 304.328,114.687 305.462 L 113.188 307.523 115.213 309.009 C 116.326 309.827,117.290 310.429,117.354 310.348 C 119.424 307.712,127.996 295.896,127.988 295.690 C 127.975 295.383,124.678 292.800,124.298 292.800 C 124.176 292.800,123.443 293.655,122.670 294.700 M129.598 302.203 C 126.009 309.890,123.866 314.799,124.034 314.948 C 124.579 315.429,130.910 319.195,131.132 319.169 C 131.471 319.131,141.761 305.264,141.912 304.642 C 141.973 304.389,141.061 303.629,139.884 302.953 L 137.745 301.725 133.609 308.062 C 127.323 317.696,127.672 316.158,134.697 303.271 C 135.455 301.880,136.013 300.684,135.938 300.613 C 135.862 300.543,134.846 299.925,133.681 299.242 L 131.562 297.998 129.598 302.203 M253.800 305.610 C 252.040 306.462,250.450 307.218,250.267 307.290 C 249.948 307.417,257.860 324.000,258.241 324.000 C 258.343 324.000,259.330 323.542,260.435 322.982 C 262.729 321.820,262.725 322.023,260.545 317.543 C 259.764 315.938,259.296 314.568,259.506 314.498 C 260.885 314.038,261.163 313.417,260.589 312.080 C 260.100 310.942,259.914 310.818,259.237 311.180 C 257.982 311.852,257.665 311.696,256.784 309.970 C 255.940 308.314,256.175 307.200,257.369 307.200 C 258.433 307.200,258.777 306.316,258.169 305.140 C 257.451 303.751,257.696 303.725,253.800 305.610 M142.708 313.312 C 141.008 317.100,139.348 320.857,139.019 321.661 L 138.422 323.122 139.911 323.728 C 140.730 324.061,142.432 324.796,143.694 325.359 L 145.988 326.384 146.610 325.180 C 147.254 323.936,147.121 323.200,146.253 323.200 C 144.594 323.200,144.278 322.232,145.220 320.041 C 146.091 318.018,146.177 317.944,147.397 318.173 C 148.485 318.377,148.733 318.265,149.133 317.387 C 149.743 316.047,149.722 315.600,149.049 315.600 C 147.856 315.600,147.625 314.630,148.405 312.889 C 149.237 311.030,149.505 310.924,151.179 311.789 C 152.300 312.369,152.330 312.355,152.994 310.957 C 153.365 310.175,153.608 309.494,153.534 309.444 C 152.921 309.028,146.629 306.403,146.266 306.412 C 146.010 306.418,144.409 309.523,142.708 313.312 M240.651 311.124 C 235.906 312.699,235.673 313.792,238.410 321.638 C 241.318 329.976,242.073 330.526,247.706 328.406 C 251.660 326.918,251.938 325.579,249.590 319.304 C 248.704 316.937,247.699 314.235,247.356 313.299 C 246.287 310.381,244.568 309.823,240.651 311.124 M156.184 314.700 C 155.598 316.625,154.417 320.414,153.559 323.119 C 151.653 329.135,151.626 328.597,153.871 329.362 C 156.594 330.290,156.643 330.262,157.579 327.179 C 158.879 322.900,159.182 322.222,159.610 322.650 C 159.851 322.891,159.627 324.202,159.001 326.215 C 157.641 330.594,157.642 330.596,160.100 331.294 C 161.255 331.623,162.317 331.826,162.461 331.746 C 162.939 331.480,164.400 326.097,164.400 324.601 C 164.400 323.731,164.729 322.708,165.201 322.108 C 166.009 321.080,167.200 317.651,167.200 316.350 C 167.200 314.857,165.458 313.575,161.803 312.378 C 157.078 310.831,157.401 310.698,156.184 314.700 M242.400 314.117 C 242.400 314.181,243.304 316.732,244.410 319.787 C 246.160 324.625,246.564 327.097,245.416 325.950 C 244.977 325.510,241.277 314.456,241.497 314.237 C 241.739 313.995,242.400 313.907,242.400 314.117 M161.578 318.066 C 160.889 320.154,159.904 320.184,160.475 318.100 C 160.702 317.275,161.084 316.240,161.326 315.800 C 162.028 314.522,162.209 316.154,161.578 318.066 M172.674 317.035 C 170.260 319.449,170.741 323.418,173.804 326.369 C 175.985 328.469,176.211 328.972,175.748 330.700 C 175.372 332.102,174.277 331.871,174.588 330.456 C 174.824 329.381,174.747 329.296,173.320 329.060 C 169.896 328.494,169.600 328.611,169.600 330.530 C 169.600 333.351,172.173 334.800,177.179 334.800 C 181.716 334.800,182.415 328.593,178.341 324.469 C 175.972 322.070,175.697 321.247,176.683 319.493 C 177.006 318.918,177.600 319.645,177.600 320.616 C 177.600 321.619,177.744 321.689,180.866 322.189 C 182.525 322.454,183.217 321.144,182.462 319.169 C 181.365 316.298,174.835 314.874,172.674 317.035 M218.851 316.693 L 217.501 316.858 217.781 320.429 C 218.036 323.696,217.621 325.364,217.066 323.300 C 216.962 322.915,216.561 321.378,216.175 319.885 L 215.473 317.170 213.837 317.411 C 209.936 317.984,209.987 317.202,213.391 324.271 C 215.355 328.348,215.992 330.124,216.205 332.112 C 216.580 335.611,216.639 335.673,219.331 335.357 C 221.904 335.054,221.912 335.036,221.192 331.142 C 220.853 329.307,220.954 327.955,221.792 323.083 C 222.347 319.863,222.800 317.042,222.800 316.814 C 222.800 316.407,221.514 316.367,218.851 316.693 M187.776 318.191 C 187.466 319.177,186.380 335.644,186.601 336.002 C 186.737 336.221,187.892 336.400,189.168 336.400 L 191.490 336.400 191.988 328.700 C 192.261 324.465,192.511 320.370,192.543 319.600 L 192.600 318.200 190.252 317.991 C 188.821 317.864,187.855 317.942,187.776 318.191 M200.100 318.289 L 196.800 318.432 196.800 319.816 C 196.800 321.070,196.907 321.200,197.938 321.200 L 199.076 321.200 199.338 326.663 C 199.482 329.668,199.600 333.187,199.600 334.482 L 199.600 336.838 202.100 336.719 L 204.600 336.600 204.453 328.900 L 204.306 321.200 205.577 321.200 C 206.801 321.200,206.844 321.145,206.724 319.700 C 206.583 317.990,206.647 318.004,200.100 318.289 " stroke="none" fill="#060663" fill-rule="evenodd"></path><path id="path1" d="M0.000 200.000 L 0.000 400.000 200.000 400.000 L 400.000 400.000 400.000 200.000 L 400.000 0.000 200.000 0.000 L 0.000 0.000 0.000 200.000 M220.800 40.785 C 238.726 43.150,255.417 48.154,270.600 55.715 C 382.016 111.202,391.915 264.284,288.596 334.003 C 242.482 365.120,178.810 369.095,128.755 343.981 C 62.667 310.823,27.835 238.618,42.985 166.185 C 57.430 97.124,117.140 45.110,188.000 39.860 C 194.505 39.378,214.383 39.939,220.800 40.785 M206.717 54.220 C 206.591 54.429,205.729 57.030,204.801 60.000 C 202.625 66.966,203.438 66.360,196.093 66.490 L 189.867 66.600 193.434 69.233 C 195.395 70.680,197.676 72.300,198.502 72.833 C 200.278 73.976,200.290 73.785,197.956 81.000 C 197.102 83.640,196.403 85.944,196.402 86.120 C 196.400 86.416,199.589 84.309,204.648 80.672 C 207.194 78.842,206.321 78.593,212.135 82.800 C 214.872 84.780,217.207 86.400,217.325 86.400 C 217.443 86.400,216.625 83.662,215.507 80.316 L 213.474 74.231 214.437 73.524 C 214.967 73.135,217.361 71.378,219.759 69.619 L 224.117 66.420 217.606 66.310 L 211.095 66.200 209.213 60.600 C 208.178 57.520,207.245 54.739,207.139 54.420 C 207.033 54.101,206.843 54.011,206.717 54.220 M132.487 70.793 C 127.387 73.648,117.317 79.800,116.800 80.377 C 116.690 80.500,114.440 82.219,111.800 84.197 C 100.425 92.722,89.400 103.772,82.463 113.600 C 81.453 115.030,80.531 116.290,80.412 116.400 C 78.501 118.180,70.343 132.729,67.382 139.638 C 62.606 150.783,60.003 159.195,57.613 171.200 C 47.297 223.024,65.576 276.580,105.000 310.042 C 105.880 310.789,106.810 311.597,107.067 311.839 C 114.352 318.675,133.499 330.036,145.502 334.644 C 206.973 358.245,274.227 340.325,314.243 289.683 C 364.872 225.611,352.082 131.005,286.263 82.720 C 284.688 81.565,283.310 80.515,283.200 80.386 C 282.615 79.702,267.936 71.200,267.340 71.200 C 267.177 71.200,268.844 72.421,271.045 73.914 C 301.599 94.641,322.190 129.592,325.192 165.823 C 331.299 239.547,273.526 302.400,199.654 302.400 C 159.135 302.400,123.472 284.468,99.021 251.800 C 72.933 216.945,67.228 172.474,83.396 130.000 C 92.673 105.628,114.813 80.508,137.800 68.271 C 138.460 67.919,138.818 67.625,138.595 67.616 C 138.373 67.607,135.624 69.037,132.487 70.793 M150.536 96.748 C 147.515 98.936,140.420 108.564,135.247 117.495 C 127.433 130.986,124.719 147.718,129.212 154.703 C 129.610 155.322,129.628 155.311,129.371 154.600 C 125.948 145.123,129.488 130.149,138.591 115.600 C 145.596 104.406,151.337 97.753,153.333 98.519 C 155.948 99.522,156.508 112.623,155.012 137.800 C 151.441 197.927,156.736 221.269,175.400 227.679 C 184.973 230.966,192.330 227.076,197.904 215.781 C 205.968 199.437,208.176 169.464,204.619 124.600 C 203.182 106.470,202.306 96.218,202.180 96.068 C 201.615 95.395,193.984 102.545,192.770 104.884 C 191.766 106.819,191.798 108.230,192.982 114.117 C 196.984 134.027,198.238 177.018,195.400 197.000 C 192.831 215.081,185.811 223.631,176.413 220.123 C 161.502 214.556,156.677 189.083,158.864 127.485 C 159.792 101.369,157.226 91.901,150.536 96.748 M230.400 98.285 C 222.033 105.024,221.871 105.405,223.604 114.327 C 224.493 118.906,226.033 132.143,226.591 140.000 C 227.876 158.088,228.024 156.790,224.676 156.830 C 222.255 156.859,218.011 157.432,219.200 157.569 C 219.530 157.607,221.420 157.729,223.400 157.839 C 225.380 157.950,227.250 158.125,227.556 158.229 C 229.123 158.761,227.528 198.485,225.609 206.723 C 222.350 220.714,214.620 225.997,204.840 220.917 C 201.021 218.933,200.645 218.962,203.972 220.983 C 222.302 232.118,232.279 213.965,233.866 166.591 C 234.010 162.288,234.257 158.689,234.414 158.591 C 235.108 158.163,249.788 161.151,252.900 162.355 L 254.000 162.780 254.000 167.491 C 254.000 172.914,253.119 188.475,252.138 200.400 C 250.756 217.187,253.145 224.289,259.144 221.229 C 261.572 219.990,263.404 216.787,267.239 207.072 C 275.118 187.112,274.773 176.987,265.899 167.743 L 262.727 164.439 263.002 159.520 C 263.153 156.814,263.336 154.060,263.409 153.400 C 264.952 139.384,264.484 108.383,262.576 98.213 C 262.232 96.381,262.490 96.287,257.400 100.113 C 252.014 104.161,251.931 104.360,252.980 110.687 C 254.154 117.771,255.160 160.400,254.153 160.400 C 254.017 160.400,251.362 159.775,248.253 159.012 C 245.144 158.248,240.710 157.391,238.400 157.107 L 234.200 156.591 234.115 140.995 C 234.012 122.179,233.186 96.920,232.663 96.557 C 232.628 96.533,231.610 97.310,230.400 98.285 M264.721 169.760 C 272.001 177.659,270.356 194.343,260.675 210.773 C 257.889 215.501,257.777 215.238,258.358 205.349 C 258.718 199.237,261.790 169.969,262.226 168.500 C 262.479 167.651,263.036 167.933,264.721 169.760 M326.142 216.634 C 327.494 216.982,328.894 217.531,329.253 217.853 C 329.650 218.209,330.282 218.344,330.866 218.198 C 331.651 218.001,336.912 218.803,338.645 219.384 C 339.072 219.527,338.714 223.214,338.119 224.800 C 337.995 225.130,337.836 225.848,337.764 226.395 C 337.459 228.734,336.686 231.200,336.260 231.194 C 336.007 231.191,334.644 230.916,333.231 230.583 C 331.819 230.250,327.859 229.429,324.431 228.759 C 321.004 228.089,318.086 227.419,317.946 227.271 C 317.721 227.031,318.448 223.500,319.633 219.082 C 320.371 216.333,322.244 215.629,326.142 216.634 M81.188 226.900 C 81.664 228.495,82.345 230.747,82.701 231.905 C 83.438 234.299,83.277 234.613,81.107 235.012 C 79.751 235.261,79.577 235.191,79.216 234.243 C 78.736 232.981,79.317 232.957,74.352 234.440 C 67.411 236.512,64.297 237.258,63.985 236.921 C 63.722 236.636,62.400 232.415,62.400 231.859 C 62.400 231.739,63.345 231.369,64.500 231.037 C 65.655 230.704,68.940 229.734,71.800 228.881 L 77.000 227.329 76.874 226.107 C 76.768 225.077,76.927 224.819,77.874 224.473 C 80.071 223.673,80.267 223.816,81.188 226.900 M324.700 233.215 C 334.237 236.458,335.021 237.308,333.244 242.473 C 331.861 246.492,330.589 247.524,327.606 247.047 C 326.061 246.800,313.683 242.516,313.114 242.032 C 312.814 241.776,313.929 237.829,314.592 236.800 C 314.805 236.470,314.984 236.020,314.989 235.800 C 315.020 234.662,316.636 230.800,317.083 230.800 C 317.367 230.800,320.795 231.887,324.700 233.215 M251.592 235.608 C 250.708 236.492,250.668 236.787,250.765 241.600 C 251.159 261.108,253.037 263.098,266.800 258.597 C 268.670 257.985,270.679 257.502,271.263 257.524 C 272.101 257.554,272.467 257.268,272.984 256.177 C 273.814 254.429,273.543 254.000,271.611 254.000 C 270.763 254.000,268.388 253.352,266.334 252.560 C 261.682 250.765,259.839 250.630,258.781 252.006 C 257.800 253.284,257.797 253.737,258.774 253.214 C 259.962 252.578,261.270 252.713,264.051 253.758 C 267.656 255.113,267.383 255.647,262.634 256.532 C 253.676 258.201,252.898 257.216,251.987 243.054 C 251.529 235.938,251.617 235.600,253.916 235.600 C 255.587 235.600,255.507 235.412,253.692 235.066 C 252.695 234.876,252.195 235.005,251.592 235.608 M85.451 239.803 C 85.982 241.109,86.329 242.408,86.221 242.689 C 86.113 242.970,86.202 243.200,86.418 243.200 C 86.790 243.200,88.800 247.299,88.800 248.058 C 88.800 248.256,88.395 248.587,87.900 248.795 C 87.405 249.002,83.606 250.618,79.458 252.386 C 71.364 255.835,70.888 255.970,70.560 254.900 C 70.442 254.515,69.998 253.430,69.573 252.489 C 69.148 251.548,68.800 250.721,68.800 250.650 C 68.800 250.579,69.522 250.196,70.404 249.798 C 72.415 248.891,72.222 248.529,70.182 249.382 C 69.354 249.728,68.631 249.963,68.576 249.905 C 68.520 249.847,68.002 248.731,67.426 247.425 C 66.104 244.429,65.885 244.640,73.400 241.649 C 76.700 240.335,80.390 238.799,81.600 238.234 C 84.340 236.957,84.284 236.934,85.451 239.803 M319.200 237.839 C 321.488 238.903,329.433 241.677,329.000 241.261 C 328.780 241.050,326.466 240.127,323.858 239.210 C 318.247 237.237,317.315 236.963,319.200 237.839 M180.591 242.740 C 177.852 244.036,174.722 247.211,173.987 249.441 C 173.327 251.438,173.701 251.492,175.190 249.613 C 177.210 247.063,179.611 245.843,182.045 246.131 L 184.039 246.367 183.919 244.115 C 183.774 241.372,183.618 241.308,180.591 242.740 M215.872 246.079 C 215.617 247.334,215.237 247.749,213.354 248.826 C 210.400 250.516,208.722 252.825,208.881 254.979 C 209.064 257.452,210.932 257.775,215.900 256.193 C 216.624 255.963,216.800 256.060,216.800 256.687 C 216.800 260.603,222.713 261.775,228.844 259.073 C 230.193 258.478,230.339 258.484,231.069 259.164 C 233.512 261.439,236.173 261.447,238.368 259.185 L 239.936 257.570 242.355 258.385 C 246.270 259.704,247.572 258.508,247.591 253.575 C 247.613 247.954,243.895 248.401,239.702 254.523 C 237.377 257.918,231.292 258.149,232.460 254.799 C 233.418 252.053,231.978 250.890,227.544 250.830 C 224.990 250.796,223.800 251.501,223.374 253.300 C 223.143 254.272,223.227 254.400,224.097 254.400 C 226.509 254.400,228.616 255.924,227.041 256.529 C 221.466 258.668,216.851 256.096,216.766 250.800 C 216.746 249.590,216.604 247.700,216.451 246.600 L 216.171 244.600 215.872 246.079 M317.649 248.050 C 322.208 250.422,323.379 252.438,321.800 255.200 C 320.967 256.657,320.981 256.678,323.600 258.000 C 324.920 258.666,326.000 259.304,326.000 259.417 C 326.000 260.007,323.532 264.400,323.200 264.400 C 322.842 264.400,306.439 256.172,306.078 255.812 C 305.834 255.567,310.015 247.985,310.859 247.141 C 312.062 245.938,314.118 246.213,317.649 248.050 M194.870 249.700 C 194.405 251.295,193.878 253.500,193.699 254.600 L 193.375 256.600 190.520 256.600 C 188.176 256.600,187.445 256.437,186.433 255.688 L 185.200 254.776 185.200 256.044 C 185.200 256.754,185.731 258.174,186.406 259.271 C 188.132 262.076,186.905 263.477,180.120 266.449 L 177.400 267.641 179.742 267.387 C 185.278 266.785,186.396 266.044,187.774 262.064 C 188.253 260.678,188.307 260.650,190.631 260.563 C 201.208 260.166,202.722 259.959,203.139 258.852 C 204.689 254.736,203.780 252.490,199.400 249.608 C 198.300 248.884,197.165 247.956,196.877 247.546 C 196.036 246.345,195.764 246.636,194.870 249.700 M154.432 249.920 C 154.415 250.866,154.685 252.190,155.033 252.863 C 156.916 256.505,149.016 258.985,146.825 255.440 C 144.849 252.243,141.600 253.225,141.600 257.019 C 141.600 259.068,142.712 260.203,145.100 260.593 C 146.082 260.753,146.800 261.089,146.800 261.388 C 146.800 261.978,142.599 264.793,140.200 265.811 C 138.143 266.683,138.912 266.968,141.858 266.423 C 144.496 265.935,146.495 264.336,147.223 262.129 C 147.651 260.833,147.718 260.800,149.931 260.794 C 155.133 260.781,157.798 255.243,155.222 249.800 L 154.465 248.200 154.432 249.920 M162.737 249.495 C 160.011 251.150,159.071 258.022,161.011 262.115 C 163.688 267.764,168.568 269.095,173.890 265.628 C 181.234 260.845,183.505 254.157,178.041 253.406 C 176.935 253.254,175.393 252.804,174.615 252.408 L 173.200 251.686 173.200 253.781 C 173.200 256.334,173.715 256.864,176.919 257.602 C 179.829 258.273,179.917 258.438,178.184 259.960 C 174.199 263.459,168.442 264.545,165.051 262.437 C 160.727 259.749,159.896 253.841,163.315 250.102 C 164.362 248.956,164.092 248.673,162.737 249.495 M215.921 251.300 L 215.800 253.400 213.954 253.757 C 209.553 254.608,208.647 252.731,212.382 250.502 C 215.575 248.597,216.070 248.709,215.921 251.300 M135.226 252.400 C 135.222 253.390,135.574 254.985,136.009 255.944 C 137.473 259.171,136.517 260.490,130.625 263.371 L 127.000 265.143 130.007 265.172 C 136.862 265.236,139.647 259.078,135.964 252.000 L 135.235 250.600 135.226 252.400 M92.755 255.197 C 95.185 259.471,95.165 259.309,93.407 260.395 C 91.846 261.360,91.453 261.250,90.603 259.605 L 90.011 258.461 88.451 259.315 C 86.956 260.134,86.917 260.206,87.493 261.086 C 88.646 262.845,85.291 264.912,84.020 263.226 L 83.333 262.316 81.667 263.166 C 79.765 264.136,79.783 264.097,80.644 265.411 C 81.580 266.839,79.418 269.476,78.020 268.612 C 77.340 268.192,73.584 261.057,73.891 260.769 C 74.525 260.177,89.818 251.615,90.255 251.608 C 90.505 251.604,91.630 253.219,92.755 255.197 M197.777 252.489 C 199.475 254.913,196.880 257.682,194.731 255.738 C 193.849 254.940,193.839 254.759,194.580 252.987 C 195.277 251.317,196.792 251.082,197.777 252.489 M246.000 254.000 C 247.707 255.707,246.707 256.464,243.960 255.545 C 242.220 254.964,241.837 254.603,242.134 253.827 C 242.490 252.899,245.012 253.012,246.000 254.000 M201.929 254.926 C 203.436 256.482,203.271 256.800,200.957 256.800 C 198.986 256.800,198.639 256.443,199.002 254.790 C 199.349 253.211,200.309 253.256,201.929 254.926 M306.480 260.324 C 307.426 260.942,310.855 263.147,314.099 265.224 C 320.581 269.373,320.532 269.301,318.758 272.065 C 317.175 274.533,317.527 274.607,311.198 270.479 C 308.229 268.543,304.770 266.338,303.511 265.579 C 300.818 263.956,300.838 264.037,302.485 261.319 C 303.970 258.868,304.174 258.817,306.480 260.324 M263.882 262.596 C 263.227 263.971,263.231 264.002,264.205 264.640 C 266.167 265.926,267.847 263.415,266.016 261.933 C 264.793 260.942,264.650 260.986,263.882 262.596 M155.472 263.297 C 154.804 264.676,155.696 266.400,157.076 266.400 C 158.363 266.400,159.067 263.606,157.989 262.778 C 156.613 261.720,156.194 261.807,155.472 263.297 M150.018 263.868 C 148.960 265.214,149.094 265.607,150.950 266.600 C 152.428 267.391,152.451 267.391,153.023 266.624 C 154.826 264.199,151.882 261.498,150.018 263.868 M153.846 268.186 C 152.721 269.904,155.067 272.607,156.346 271.066 C 157.589 269.567,157.611 268.426,156.408 267.804 C 154.846 266.997,154.601 267.033,153.846 268.186 M302.656 269.731 C 303.725 270.463,304.960 271.611,305.400 272.281 C 305.840 272.952,306.780 273.713,307.490 273.972 C 308.981 274.518,313.956 278.393,313.982 279.029 C 313.992 279.265,313.100 280.422,312.000 281.600 C 310.900 282.778,310.000 283.821,310.000 283.917 C 310.000 284.471,307.040 288.000,306.576 288.000 C 306.270 288.000,302.821 285.450,298.910 282.333 C 295.000 279.216,291.731 276.612,291.646 276.546 C 291.224 276.215,296.496 269.600,297.727 268.914 C 299.190 268.100,300.621 268.337,302.656 269.731 M103.549 271.391 C 104.457 272.376,105.200 273.456,105.200 273.791 C 105.200 274.126,105.470 274.400,105.800 274.400 C 106.130 274.400,106.404 274.535,106.409 274.700 C 106.414 274.865,107.044 275.695,107.809 276.544 C 109.894 278.859,110.536 277.960,101.293 285.656 C 95.551 290.436,93.988 290.546,90.607 286.406 C 86.790 281.733,86.664 281.940,100.338 270.513 C 101.731 269.348,101.644 269.325,103.549 271.391 M183.605 275.916 C 183.002 276.404,182.653 277.231,182.508 278.516 L 182.296 280.400 183.548 280.400 C 184.704 280.400,184.800 280.296,184.800 279.049 C 184.800 277.390,185.707 276.459,186.600 277.200 C 187.635 278.059,187.273 279.473,184.800 284.232 C 181.425 290.726,181.441 290.800,186.200 290.800 L 190.000 290.800 190.000 289.570 C 190.000 288.363,189.965 288.342,188.213 288.449 C 185.675 288.606,185.663 288.434,187.947 284.417 C 190.516 279.898,190.720 277.877,188.769 276.236 C 187.285 274.987,184.932 274.841,183.605 275.916 M193.722 275.604 C 191.833 276.365,191.186 288.000,192.926 289.920 C 194.635 291.805,198.611 291.187,199.564 288.888 C 200.622 286.332,199.993 277.295,198.678 276.164 C 197.499 275.151,195.428 274.917,193.722 275.604 M210.982 276.182 C 209.310 277.853,209.563 280.400,211.400 280.400 C 212.763 280.400,212.800 280.359,212.800 278.824 C 212.800 277.126,213.160 276.656,214.164 277.041 C 215.541 277.570,214.142 281.877,210.865 287.200 C 210.391 287.970,210.002 289.095,210.001 289.700 L 210.000 290.800 213.600 290.800 L 217.200 290.800 217.200 289.584 C 217.200 288.417,217.135 288.371,215.611 288.461 C 213.539 288.584,213.340 288.314,214.325 286.721 C 217.999 280.777,218.549 277.118,215.969 275.784 C 214.206 274.872,212.125 275.038,210.982 276.182 M204.733 275.917 C 204.660 276.091,203.925 276.646,203.100 277.150 C 201.287 278.256,201.207 278.876,202.800 279.478 L 204.000 279.931 204.000 285.365 L 204.000 290.800 205.400 290.800 L 206.800 290.800 206.800 283.200 L 206.800 275.600 205.833 275.600 C 205.302 275.600,204.807 275.743,204.733 275.917 M196.711 282.801 C 196.826 288.679,196.587 289.785,195.417 288.814 C 194.618 288.151,194.503 278.057,195.285 277.275 C 196.357 276.203,196.602 277.150,196.711 282.801 M99.000 279.456 L 96.600 281.693 99.000 279.775 C 102.228 277.195,102.224 277.198,101.780 277.210 C 101.571 277.215,100.320 278.226,99.000 279.456 M295.590 286.144 C 299.005 288.974,302.064 291.539,302.386 291.845 C 302.896 292.328,302.692 292.684,300.825 294.574 L 298.679 296.748 297.339 295.727 C 295.900 294.629,295.476 295.002,296.800 296.200 C 297.954 297.244,297.830 297.607,295.561 299.815 L 293.523 301.800 291.972 300.000 C 288.865 296.392,281.604 286.989,281.602 286.569 C 281.596 285.418,287.995 279.898,288.692 280.453 C 289.070 280.754,292.174 283.315,295.590 286.144 M114.100 282.981 C 116.348 285.050,116.326 284.912,114.784 287.422 L 113.569 289.400 115.084 287.694 C 116.969 285.573,117.012 285.575,119.344 287.943 C 120.954 289.578,121.174 289.975,120.729 290.453 C 120.438 290.765,118.490 292.901,116.400 295.200 C 114.310 297.499,111.574 300.465,110.320 301.790 L 108.041 304.200 106.020 302.215 C 103.637 299.873,103.667 300.048,105.235 297.672 L 106.470 295.800 104.847 297.521 C 102.989 299.491,102.764 299.458,100.234 296.848 L 98.669 295.232 100.407 293.316 C 101.363 292.262,104.138 289.265,106.573 286.655 C 109.008 284.046,111.060 281.751,111.133 281.555 C 111.395 280.857,112.228 281.257,114.100 282.981 M283.549 297.630 C 286.698 301.826,289.213 305.316,289.137 305.385 C 287.592 306.807,284.947 308.427,284.403 308.285 C 283.915 308.157,283.744 308.299,283.839 308.751 C 283.962 309.329,281.240 311.703,279.835 312.242 C 279.445 312.391,268.000 297.754,268.000 297.107 C 268.000 296.610,272.403 293.555,272.782 293.789 C 273.012 293.931,273.203 293.812,273.206 293.524 C 273.212 293.040,276.970 290.000,277.563 290.000 C 277.706 290.000,280.400 293.433,283.549 297.630 M126.870 293.851 C 129.107 295.494,129.108 295.465,126.685 298.667 C 125.713 299.950,124.082 302.125,123.059 303.500 C 116.803 311.912,117.558 311.381,114.790 309.315 C 112.249 307.418,111.941 308.256,118.300 299.756 C 124.382 291.625,124.101 291.819,126.870 293.851 M134.380 299.052 L 136.817 300.503 135.006 303.852 C 132.765 307.996,132.910 308.111,135.452 304.205 C 136.523 302.558,137.508 301.208,137.640 301.205 C 138.317 301.191,142.807 304.201,142.659 304.570 C 142.283 305.503,131.554 319.600,131.220 319.600 C 130.843 319.600,124.022 315.750,123.487 315.235 C 123.315 315.070,124.462 312.159,126.036 308.767 C 127.611 305.375,129.418 301.475,130.053 300.100 C 131.410 297.162,131.266 297.197,134.380 299.052 M258.404 304.500 C 259.482 306.267,259.412 306.671,257.900 307.441 C 257.185 307.804,256.534 308.159,256.454 308.230 C 255.900 308.718,258.133 311.157,258.805 310.797 C 259.958 310.180,260.203 310.298,260.926 311.814 C 261.814 313.676,261.782 313.934,260.601 314.472 L 259.602 314.927 261.399 318.305 C 263.463 322.184,263.489 322.040,260.409 323.596 C 257.592 325.017,258.132 325.556,254.213 317.402 C 250.134 308.916,249.365 307.080,249.819 306.917 C 250.029 306.842,251.820 305.981,253.800 305.004 C 255.780 304.028,257.448 303.222,257.506 303.214 C 257.564 303.206,257.968 303.785,258.404 304.500 M150.146 307.425 C 154.370 309.426,154.256 309.289,153.395 311.351 C 152.716 312.976,152.459 313.058,150.779 312.189 C 149.602 311.581,149.595 311.584,148.899 313.054 C 148.485 313.927,148.363 314.587,148.600 314.671 C 150.091 315.200,150.207 315.509,149.585 317.282 C 148.991 318.975,148.570 319.207,147.152 318.622 C 146.663 318.420,146.346 318.753,145.852 319.985 C 144.990 322.142,145.005 322.222,146.400 322.800 C 147.753 323.360,147.869 323.919,146.990 325.620 C 146.220 327.108,146.360 327.122,141.817 325.104 C 137.452 323.165,137.649 323.522,139.154 320.283 C 139.789 318.917,141.340 315.370,142.600 312.400 C 145.286 306.074,145.520 305.600,145.961 305.600 C 146.143 305.600,148.027 306.421,150.146 307.425 M246.838 311.247 C 247.751 312.451,251.600 323.565,251.600 324.994 C 251.600 328.303,243.236 331.271,240.969 328.766 C 239.956 327.647,236.004 316.809,236.002 315.144 C 235.997 311.276,244.535 308.206,246.838 311.247 M161.200 311.657 C 167.654 313.655,168.413 314.670,166.990 319.400 C 166.659 320.500,166.033 321.885,165.598 322.478 C 165.164 323.071,164.910 323.821,165.034 324.145 C 165.234 324.666,164.065 329.521,163.173 331.869 L 162.843 332.739 160.522 331.938 C 159.245 331.498,157.930 331.032,157.600 330.901 C 157.270 330.771,155.740 330.282,154.200 329.815 C 152.660 329.347,151.422 328.793,151.449 328.582 C 151.555 327.755,156.512 311.755,156.875 311.069 C 157.123 310.601,157.502 310.430,157.931 310.595 C 158.299 310.737,159.770 311.215,161.200 311.657 M181.389 316.956 C 185.298 319.517,183.449 323.464,178.900 322.269 C 176.295 321.585,176.297 321.699,178.937 324.446 C 183.339 329.027,181.865 335.489,176.454 335.333 C 171.397 335.187,169.197 333.690,169.208 330.400 C 169.215 328.210,169.452 328.080,172.500 328.589 C 175.726 329.127,175.749 329.063,173.229 326.544 C 170.379 323.693,169.957 319.538,172.243 316.822 C 173.672 315.124,178.706 315.198,181.389 316.956 M223.334 315.900 C 223.433 316.065,222.996 318.990,222.362 322.400 C 221.230 328.495,221.182 329.951,221.992 333.702 C 222.379 335.494,222.364 335.506,219.137 335.951 C 216.146 336.364,216.276 336.496,215.646 332.383 C 215.271 329.937,214.549 327.893,212.529 323.569 C 209.577 317.246,209.565 317.348,213.279 316.968 L 215.958 316.694 216.221 317.847 C 217.012 321.323,217.127 321.478,217.164 319.124 C 217.204 316.564,217.303 316.452,219.920 316.011 C 222.519 315.573,223.125 315.553,223.334 315.900 M161.000 317.200 C 160.850 317.673,160.817 318.150,160.927 318.260 C 161.037 318.370,161.250 318.073,161.400 317.600 C 161.550 317.127,161.583 316.650,161.473 316.540 C 161.363 316.430,161.150 316.727,161.000 317.200 M192.929 317.969 C 193.260 318.300,192.224 335.030,191.794 336.300 C 191.523 337.102,186.443 336.977,186.129 336.160 C 185.830 335.379,187.028 318.203,187.426 317.557 C 187.754 317.028,192.330 317.370,192.929 317.969 M207.121 319.671 C 207.235 321.447,207.185 321.549,206.149 321.671 L 205.057 321.800 205.157 329.466 L 205.257 337.132 202.394 337.266 C 198.839 337.432,199.201 338.206,199.195 330.433 C 199.188 322.579,199.109 322.162,197.565 321.853 C 196.487 321.637,196.400 321.487,196.400 319.832 L 196.400 318.044 198.300 317.887 C 199.345 317.801,201.730 317.746,203.600 317.765 L 207.000 317.800 207.121 319.671 M158.444 325.655 C 157.980 327.030,157.613 328.345,157.630 328.578 C 157.646 328.810,158.095 327.754,158.627 326.230 C 159.159 324.707,159.526 323.392,159.441 323.308 C 159.357 323.224,158.909 324.280,158.444 325.655 " stroke="none" fill="#f5f5f5" fill-rule="evenodd"></path><path id="path2" d="M86.386 86.700 L 84.200 89.000 86.500 86.814 C 88.637 84.782,88.983 84.400,88.686 84.400 C 88.624 84.400,87.589 85.435,86.386 86.700 M113.578 86.300 L 112.200 87.800 113.700 86.422 C 114.525 85.663,115.200 84.988,115.200 84.922 C 115.200 84.616,114.862 84.904,113.578 86.300 M313.183 86.500 C 314.164 87.545,315.019 88.400,315.083 88.400 C 315.384 88.400,315.066 88.041,313.300 86.383 L 311.400 84.600 313.183 86.500 M197.781 98.900 L 196.200 100.600 197.900 99.019 C 199.481 97.548,199.784 97.200,199.481 97.200 C 199.416 97.200,198.651 97.965,197.781 98.900 M194.378 102.300 L 193.000 103.800 194.500 102.422 C 195.325 101.663,196.000 100.988,196.000 100.922 C 196.000 100.616,195.662 100.904,194.378 102.300 M233.301 103.000 C 233.305 103.880,233.387 104.193,233.483 103.695 C 233.579 103.198,233.575 102.478,233.475 102.095 C 233.375 101.713,233.296 102.120,233.301 103.000 M264.493 116.800 C 264.493 117.570,264.575 117.885,264.676 117.500 C 264.776 117.115,264.776 116.485,264.676 116.100 C 264.575 115.715,264.493 116.030,264.493 116.800 M234.109 122.400 C 234.109 123.390,234.187 123.795,234.282 123.300 C 234.378 122.805,234.378 121.995,234.282 121.500 C 234.187 121.005,234.109 121.410,234.109 122.400 M158.909 128.400 C 158.909 129.390,158.987 129.795,159.082 129.300 C 159.178 128.805,159.178 127.995,159.082 127.500 C 158.987 127.005,158.909 127.410,158.909 128.400 M254.114 135.000 C 254.117 136.100,254.195 136.503,254.287 135.895 C 254.379 135.286,254.377 134.386,254.282 133.895 C 254.187 133.403,254.111 133.900,254.114 135.000 M264.493 137.200 C 264.493 137.970,264.575 138.285,264.676 137.900 C 264.776 137.515,264.776 136.885,264.676 136.500 C 264.575 136.115,264.493 136.430,264.493 137.200 M254.124 152.200 C 254.126 153.520,254.201 154.012,254.290 153.293 C 254.379 152.574,254.377 151.494,254.286 150.893 C 254.195 150.292,254.122 150.880,254.124 152.200 M206.567 160.800 C 206.567 165.090,206.626 166.845,206.698 164.700 C 206.770 162.555,206.770 159.045,206.698 156.900 C 206.626 154.755,206.567 156.510,206.567 160.800 M196.493 158.800 C 196.493 159.570,196.575 159.885,196.676 159.500 C 196.776 159.115,196.776 158.485,196.676 158.100 C 196.575 157.715,196.493 158.030,196.493 158.800 M253.709 166.800 C 253.709 167.790,253.787 168.195,253.882 167.700 C 253.978 167.205,253.978 166.395,253.882 165.900 C 253.787 165.405,253.709 165.810,253.709 166.800 M74.509 178.400 C 74.509 179.390,74.587 179.795,74.682 179.300 C 74.778 178.805,74.778 177.995,74.682 177.500 C 74.587 177.005,74.509 177.410,74.509 178.400 M345.293 194.400 C 345.293 195.170,345.375 195.485,345.476 195.100 C 345.576 194.715,345.576 194.085,345.476 193.700 C 345.375 193.315,345.293 193.630,345.293 194.400 M256.100 222.276 C 256.485 222.376,257.115 222.376,257.500 222.276 C 257.885 222.175,257.570 222.093,256.800 222.093 C 256.030 222.093,255.715 222.175,256.100 222.276 M210.700 222.682 C 211.195 222.778,212.005 222.778,212.500 222.682 C 212.995 222.587,212.590 222.509,211.600 222.509 C 210.610 222.509,210.205 222.587,210.700 222.682 M161.309 255.600 C 161.309 256.590,161.387 256.995,161.482 256.500 C 161.578 256.005,161.578 255.195,161.482 254.700 C 161.387 254.205,161.309 254.610,161.309 255.600 M111.200 265.800 C 111.946 266.570,112.647 267.200,112.757 267.200 C 112.867 267.200,112.346 266.570,111.600 265.800 C 110.854 265.030,110.153 264.400,110.043 264.400 C 109.933 264.400,110.454 265.030,111.200 265.800 M288.000 287.000 C 288.274 287.330,288.678 287.600,288.898 287.600 C 289.121 287.600,289.078 287.335,288.800 287.000 C 288.526 286.670,288.122 286.400,287.902 286.400 C 287.679 286.400,287.722 286.665,288.000 287.000 M183.700 291.091 C 184.525 291.178,185.875 291.178,186.700 291.091 C 187.525 291.005,186.850 290.934,185.200 290.934 C 183.550 290.934,182.875 291.005,183.700 291.091 M204.705 291.083 C 205.202 291.179,205.922 291.175,206.305 291.075 C 206.687 290.975,206.280 290.896,205.400 290.901 C 204.520 290.905,204.207 290.987,204.705 291.083 M211.700 291.094 C 212.745 291.176,214.455 291.176,215.500 291.094 C 216.545 291.012,215.690 290.944,213.600 290.944 C 211.510 290.944,210.655 291.012,211.700 291.094 M97.200 303.400 C 98.395 304.610,99.463 305.600,99.573 305.600 C 99.683 305.600,98.795 304.610,97.600 303.400 C 96.405 302.190,95.337 301.200,95.227 301.200 C 95.117 301.200,96.005 302.190,97.200 303.400 M198.112 302.295 C 199.164 302.377,200.784 302.376,201.712 302.292 C 202.640 302.208,201.780 302.141,199.800 302.142 C 197.820 302.143,197.060 302.212,198.112 302.295 M313.186 313.500 L 311.000 315.800 313.300 313.614 C 315.437 311.582,315.783 311.200,315.486 311.200 C 315.424 311.200,314.389 312.235,313.186 313.500 M86.383 313.300 C 87.364 314.345,88.219 315.200,88.283 315.200 C 88.584 315.200,88.266 314.841,86.500 313.183 L 84.600 311.400 86.383 313.300 M205.700 345.076 C 206.085 345.176,206.715 345.176,207.100 345.076 C 207.485 344.975,207.170 344.893,206.400 344.893 C 205.630 344.893,205.315 344.975,205.700 345.076 " stroke="none" fill="#9495be" fill-rule="evenodd"></path><path id="path3" d="M233.714 109.800 C 233.717 110.900,233.795 111.303,233.887 110.695 C 233.979 110.086,233.977 109.186,233.882 108.695 C 233.787 108.203,233.711 108.700,233.714 109.800 M254.164 143.400 C 254.163 147.140,254.223 148.724,254.297 146.920 C 254.371 145.115,254.372 142.055,254.298 140.120 C 254.225 138.184,254.164 139.660,254.164 143.400 M224.305 158.283 C 224.802 158.379,225.522 158.375,225.905 158.275 C 226.287 158.175,225.880 158.096,225.000 158.101 C 224.120 158.105,223.807 158.187,224.305 158.283 M131.632 159.230 C 131.597 159.923,133.463 161.871,133.819 161.514 C 133.942 161.391,133.612 160.953,133.085 160.539 C 132.559 160.125,132.024 159.519,131.896 159.193 C 131.699 158.691,131.658 158.696,131.632 159.230 M153.346 169.800 C 153.347 172.000,153.414 172.849,153.495 171.687 C 153.576 170.524,153.576 168.724,153.493 167.687 C 153.411 166.649,153.345 167.600,153.346 169.800 M233.701 175.400 C 233.705 176.280,233.787 176.593,233.883 176.095 C 233.979 175.598,233.975 174.878,233.875 174.495 C 233.775 174.113,233.696 174.520,233.701 175.400 M251.293 208.000 C 251.293 208.770,251.375 209.085,251.476 208.700 C 251.576 208.315,251.576 207.685,251.476 207.300 C 251.375 206.915,251.293 207.230,251.293 208.000 M234.500 261.076 C 234.885 261.176,235.515 261.176,235.900 261.076 C 236.285 260.975,235.970 260.893,235.200 260.893 C 234.430 260.893,234.115 260.975,234.500 261.076 M200.146 283.400 C 200.147 285.600,200.214 286.449,200.295 285.287 C 200.376 284.124,200.376 282.324,200.293 281.287 C 200.211 280.249,200.145 281.200,200.146 283.400 M204.558 321.766 C 204.438 322.078,204.417 322.843,204.510 323.466 C 204.656 324.438,204.689 324.389,204.740 323.128 C 204.788 321.943,204.976 321.622,205.700 321.482 L 206.600 321.309 205.687 321.254 C 205.186 321.225,204.677 321.455,204.558 321.766 " stroke="none" fill="#747ca3" fill-rule="evenodd"></path><path id="path4" d="M189.200 66.151 C 189.200 66.234,189.505 66.549,189.877 66.851 C 190.255 67.158,190.429 67.193,190.272 66.930 C 190.108 66.656,190.284 66.384,190.695 66.277 C 191.135 66.162,190.986 66.075,190.300 66.046 C 189.695 66.021,189.200 66.068,189.200 66.151 M195.315 66.296 C 196.588 66.376,198.568 66.375,199.715 66.294 C 200.862 66.214,199.820 66.149,197.400 66.150 C 194.980 66.151,194.042 66.216,195.315 66.296 M215.900 66.297 C 217.495 66.373,220.105 66.373,221.700 66.297 C 223.295 66.221,221.990 66.159,218.800 66.159 C 215.610 66.159,214.305 66.221,215.900 66.297 M110.975 88.500 L 109.800 89.800 111.100 88.625 C 112.312 87.530,112.584 87.200,112.275 87.200 C 112.206 87.200,111.621 87.785,110.975 88.500 M287.200 87.325 C 287.200 87.394,287.785 87.979,288.500 88.625 L 289.800 89.800 288.625 88.500 C 287.530 87.288,287.200 87.016,287.200 87.325 M107.978 91.500 L 106.600 93.000 108.100 91.622 C 108.925 90.863,109.600 90.188,109.600 90.122 C 109.600 89.816,109.262 90.104,107.978 91.500 M318.000 91.400 C 318.746 92.170,319.447 92.800,319.557 92.800 C 319.667 92.800,319.146 92.170,318.400 91.400 C 317.654 90.630,316.953 90.000,316.843 90.000 C 316.733 90.000,317.254 90.630,318.000 91.400 M299.000 93.200 C 299.859 94.080,300.652 94.800,300.762 94.800 C 300.872 94.800,300.259 94.080,299.400 93.200 C 298.541 92.320,297.748 91.600,297.638 91.600 C 297.528 91.600,298.141 92.320,299.000 93.200 M305.200 99.325 C 305.200 99.394,305.785 99.979,306.500 100.625 L 307.800 101.800 306.625 100.500 C 305.530 99.288,305.200 99.016,305.200 99.325 M222.493 108.000 C 222.493 108.770,222.575 109.085,222.676 108.700 C 222.776 108.315,222.776 107.685,222.676 107.300 C 222.575 106.915,222.493 107.230,222.493 108.000 M264.093 113.200 C 264.093 113.970,264.175 114.285,264.276 113.900 C 264.376 113.515,264.376 112.885,264.276 112.500 C 264.175 112.115,264.093 112.430,264.093 113.200 M233.731 116.200 C 233.733 117.740,233.805 118.321,233.892 117.491 C 233.979 116.661,233.977 115.401,233.889 114.691 C 233.800 113.981,233.729 114.660,233.731 116.200 M253.714 118.200 C 253.717 119.300,253.795 119.703,253.887 119.095 C 253.979 118.486,253.977 117.586,253.882 117.095 C 253.787 116.603,253.711 117.100,253.714 118.200 M204.093 118.000 C 204.093 118.770,204.175 119.085,204.276 118.700 C 204.376 118.315,204.376 117.685,204.276 117.300 C 204.175 116.915,204.093 117.230,204.093 118.000 M155.701 122.200 C 155.705 123.080,155.787 123.393,155.883 122.895 C 155.979 122.398,155.975 121.678,155.875 121.295 C 155.775 120.913,155.696 121.320,155.701 122.200 M204.501 123.000 C 204.505 123.880,204.587 124.193,204.683 123.695 C 204.779 123.198,204.775 122.478,204.675 122.095 C 204.575 121.713,204.496 122.120,204.501 123.000 M194.493 124.800 C 194.493 125.570,194.575 125.885,194.676 125.500 C 194.776 125.115,194.776 124.485,194.676 124.100 C 194.575 123.715,194.493 124.030,194.493 124.800 M264.540 126.800 C 264.540 128.670,264.609 129.435,264.693 128.500 C 264.777 127.565,264.777 126.035,264.693 125.100 C 264.609 124.165,264.540 124.930,264.540 126.800 M158.893 125.200 C 158.893 125.970,158.975 126.285,159.076 125.900 C 159.176 125.515,159.176 124.885,159.076 124.500 C 158.975 124.115,158.893 124.430,158.893 125.200 M254.124 127.400 C 254.126 128.720,254.201 129.212,254.290 128.493 C 254.379 127.774,254.377 126.694,254.286 126.093 C 254.195 125.492,254.122 126.080,254.124 127.400 M204.909 128.000 C 204.909 128.990,204.987 129.395,205.082 128.900 C 205.178 128.405,205.178 127.595,205.082 127.100 C 204.987 126.605,204.909 127.010,204.909 128.000 M234.167 134.400 C 234.167 138.690,234.226 140.445,234.298 138.300 C 234.370 136.155,234.370 132.645,234.298 130.500 C 234.226 128.355,234.167 130.110,234.167 134.400 M195.293 133.200 C 195.293 133.970,195.375 134.285,195.476 133.900 C 195.576 133.515,195.576 132.885,195.476 132.500 C 195.375 132.115,195.293 132.430,195.293 133.200 M205.301 133.800 C 205.305 134.680,205.387 134.993,205.483 134.495 C 205.579 133.998,205.575 133.278,205.475 132.895 C 205.375 132.513,205.296 132.920,205.301 133.800 M154.909 136.400 C 154.909 137.390,154.987 137.795,155.082 137.300 C 155.178 136.805,155.178 135.995,155.082 135.500 C 154.987 135.005,154.909 135.410,154.909 136.400 M158.584 152.400 C 158.584 162.190,158.636 166.195,158.700 161.300 C 158.763 156.405,158.763 148.395,158.700 143.500 C 158.636 138.605,158.584 142.610,158.584 152.400 M226.093 136.400 C 226.093 137.170,226.175 137.485,226.276 137.100 C 226.376 136.715,226.376 136.085,226.276 135.700 C 226.175 135.315,226.093 135.630,226.093 136.400 M195.709 138.400 C 195.709 139.390,195.787 139.795,195.882 139.300 C 195.978 138.805,195.978 137.995,195.882 137.500 C 195.787 137.005,195.709 137.410,195.709 138.400 M205.701 139.800 C 205.705 140.680,205.787 140.993,205.883 140.495 C 205.979 139.998,205.975 139.278,205.875 138.895 C 205.775 138.513,205.696 138.920,205.701 139.800 M264.109 141.600 C 264.109 142.590,264.187 142.995,264.282 142.500 C 264.378 142.005,264.378 141.195,264.282 140.700 C 264.187 140.205,264.109 140.610,264.109 141.600 M154.514 143.400 C 154.517 144.500,154.595 144.903,154.687 144.295 C 154.779 143.686,154.777 142.786,154.682 142.295 C 154.587 141.803,154.511 142.300,154.514 143.400 M126.901 143.800 C 126.905 144.680,126.987 144.993,127.083 144.495 C 127.179 143.998,127.175 143.278,127.075 142.895 C 126.975 142.513,126.896 142.920,126.901 143.800 M206.124 149.000 C 206.126 150.320,206.201 150.812,206.290 150.093 C 206.379 149.374,206.377 148.294,206.286 147.693 C 206.195 147.092,206.122 147.680,206.124 149.000 M154.120 150.400 C 154.120 151.610,154.195 152.105,154.287 151.500 C 154.378 150.895,154.378 149.905,154.287 149.300 C 154.195 148.695,154.120 149.190,154.120 150.400 M234.060 153.076 C 234.027 154.878,234.135 156.437,234.300 156.539 C 234.465 156.642,234.550 155.618,234.488 154.263 C 234.300 150.122,234.123 149.631,234.060 153.076 M196.501 152.200 C 196.505 153.080,196.587 153.393,196.683 152.895 C 196.779 152.398,196.775 151.678,196.675 151.295 C 196.575 150.913,196.496 151.320,196.501 152.200 M263.293 155.200 C 263.293 155.970,263.375 156.285,263.476 155.900 C 263.576 155.515,263.576 154.885,263.476 154.500 C 263.375 154.115,263.293 154.430,263.293 155.200 M226.000 156.400 L 224.600 156.695 225.876 156.747 C 226.578 156.776,227.264 156.620,227.400 156.400 C 227.536 156.180,227.592 156.024,227.524 156.053 C 227.456 156.082,226.770 156.238,226.000 156.400 M218.204 157.606 C 218.338 157.823,219.007 158.000,219.690 158.000 C 221.201 158.000,221.049 157.800,219.280 157.463 C 218.455 157.306,218.052 157.360,218.204 157.606 M153.746 162.200 C 153.747 164.400,153.814 165.249,153.895 164.087 C 153.976 162.924,153.976 161.124,153.893 160.087 C 153.811 159.049,153.745 160.000,153.746 162.200 M234.114 161.400 C 234.117 162.500,234.195 162.903,234.287 162.295 C 234.379 161.686,234.377 160.786,234.282 160.295 C 234.187 159.803,234.111 160.300,234.114 161.400 M324.901 164.600 C 324.905 165.480,324.987 165.793,325.083 165.295 C 325.179 164.798,325.175 164.078,325.075 163.695 C 324.975 163.313,324.896 163.720,324.901 164.600 M265.000 166.800 C 266.306 168.120,267.465 169.200,267.575 169.200 C 267.685 169.200,266.706 168.120,265.400 166.800 C 264.094 165.480,262.935 164.400,262.825 164.400 C 262.715 164.400,263.694 165.480,265.000 166.800 M196.942 169.800 C 196.941 171.780,197.008 172.640,197.092 171.712 C 197.176 170.784,197.177 169.164,197.095 168.112 C 197.012 167.060,196.943 167.820,196.942 169.800 M325.324 171.000 C 325.326 172.320,325.401 172.812,325.490 172.093 C 325.579 171.374,325.577 170.294,325.486 169.693 C 325.395 169.092,325.322 169.680,325.324 171.000 M233.709 170.800 C 233.709 171.790,233.787 172.195,233.882 171.700 C 233.978 171.205,233.978 170.395,233.882 169.900 C 233.787 169.405,233.709 169.810,233.709 170.800 M74.509 171.600 C 74.509 172.590,74.587 172.995,74.682 172.500 C 74.778 172.005,74.778 171.195,74.682 170.700 C 74.587 170.205,74.509 170.610,74.509 171.600 M206.120 172.000 C 206.120 173.210,206.195 173.705,206.287 173.100 C 206.378 172.495,206.378 171.505,206.287 170.900 C 206.195 170.295,206.120 170.790,206.120 172.000 M253.731 172.600 C 253.733 174.140,253.805 174.721,253.892 173.891 C 253.979 173.061,253.977 171.801,253.889 171.091 C 253.800 170.381,253.729 171.060,253.731 172.600 M153.734 176.000 C 153.734 177.650,153.805 178.325,153.891 177.500 C 153.978 176.675,153.978 175.325,153.891 174.500 C 153.805 173.675,153.734 174.350,153.734 176.000 M253.320 180.000 C 253.320 181.210,253.395 181.705,253.487 181.100 C 253.578 180.495,253.578 179.505,253.487 178.900 C 253.395 178.295,253.320 178.790,253.320 180.000 M205.693 179.600 C 205.693 180.370,205.775 180.685,205.876 180.300 C 205.976 179.915,205.976 179.285,205.876 178.900 C 205.775 178.515,205.693 178.830,205.693 179.600 M325.320 182.000 C 325.320 183.210,325.395 183.705,325.487 183.100 C 325.578 182.495,325.578 181.505,325.487 180.900 C 325.395 180.295,325.320 180.790,325.320 182.000 M196.509 183.600 C 196.509 184.590,196.587 184.995,196.682 184.500 C 196.778 184.005,196.778 183.195,196.682 182.700 C 196.587 182.205,196.509 182.610,196.509 183.600 M227.693 183.600 C 227.693 184.370,227.775 184.685,227.876 184.300 C 227.976 183.915,227.976 183.285,227.876 182.900 C 227.775 182.515,227.693 182.830,227.693 183.600 M74.524 185.400 C 74.526 186.720,74.601 187.212,74.690 186.493 C 74.779 185.774,74.777 184.694,74.686 184.093 C 74.595 183.492,74.522 184.080,74.524 185.400 M154.093 184.800 C 154.093 185.570,154.175 185.885,154.276 185.500 C 154.376 185.115,154.376 184.485,154.276 184.100 C 154.175 183.715,154.093 184.030,154.093 184.800 M252.920 187.200 C 252.920 188.410,252.995 188.905,253.087 188.300 C 253.178 187.695,253.178 186.705,253.087 186.100 C 252.995 185.495,252.920 185.990,252.920 187.200 M344.909 191.600 C 344.909 192.590,344.987 192.995,345.082 192.500 C 345.178 192.005,345.178 191.195,345.082 190.700 C 344.987 190.205,344.909 190.610,344.909 191.600 M252.509 193.200 C 252.509 194.190,252.587 194.595,252.682 194.100 C 252.778 193.605,252.778 192.795,252.682 192.300 C 252.587 191.805,252.509 192.210,252.509 193.200 M54.540 200.000 C 54.540 201.870,54.609 202.635,54.693 201.700 C 54.777 200.765,54.777 199.235,54.693 198.300 C 54.609 197.365,54.540 198.130,54.540 200.000 M252.093 198.800 C 252.093 199.570,252.175 199.885,252.276 199.500 C 252.376 199.115,252.376 198.485,252.276 198.100 C 252.175 197.715,252.093 198.030,252.093 198.800 M258.128 210.800 C 258.128 212.230,258.201 212.815,258.289 212.100 C 258.378 211.385,258.378 210.215,258.289 209.500 C 258.201 208.785,258.128 209.370,258.128 210.800 M344.893 210.400 C 344.893 211.170,344.975 211.485,345.076 211.100 C 345.176 210.715,345.176 210.085,345.076 209.700 C 344.975 209.315,344.893 209.630,344.893 210.400 M54.893 210.800 C 54.893 211.570,54.975 211.885,55.076 211.500 C 55.176 211.115,55.176 210.485,55.076 210.100 C 54.975 209.715,54.893 210.030,54.893 210.800 M323.200 222.331 C 324.118 222.908,326.685 223.372,326.200 222.873 C 325.980 222.647,325.080 222.348,324.200 222.208 C 323.129 222.038,322.799 222.079,323.200 222.331 M212.700 224.282 C 213.195 224.378,214.005 224.378,214.500 224.282 C 214.995 224.187,214.590 224.109,213.600 224.109 C 212.610 224.109,212.205 224.187,212.700 224.282 M332.800 224.389 C 333.130 224.602,334.174 224.894,335.120 225.037 C 336.066 225.180,337.130 225.587,337.484 225.941 C 338.008 226.465,338.092 226.474,337.934 225.993 C 337.733 225.381,336.045 224.705,333.600 224.258 C 332.627 224.079,332.383 224.119,332.800 224.389 M253.930 235.490 C 253.122 235.575,252.231 235.950,251.950 236.322 C 251.517 236.896,251.525 236.923,251.999 236.500 C 252.308 236.225,253.334 236.000,254.280 236.000 C 255.226 236.000,256.000 235.820,256.000 235.600 C 256.000 235.380,255.865 235.230,255.700 235.267 C 255.535 235.304,254.739 235.404,253.930 235.490 M315.400 236.800 C 316.501 237.273,316.892 237.273,316.600 236.800 C 316.464 236.580,315.958 236.413,315.476 236.428 C 314.631 236.455,314.629 236.469,315.400 236.800 M250.493 240.400 C 250.493 241.170,250.575 241.485,250.676 241.100 C 250.776 240.715,250.776 240.085,250.676 239.700 C 250.575 239.315,250.493 239.630,250.493 240.400 M183.980 243.310 C 184.175 244.958,184.183 244.967,184.319 243.649 C 184.396 242.906,184.306 242.146,184.120 241.960 C 183.933 241.773,183.871 242.381,183.980 243.310 M84.700 243.227 C 83.875 243.663,83.200 244.095,83.200 244.189 C 83.200 244.539,85.573 243.515,86.026 242.969 C 86.626 242.245,86.521 242.266,84.700 243.227 M176.575 245.300 L 175.400 246.600 176.700 245.425 C 177.415 244.779,178.000 244.194,178.000 244.125 C 178.000 243.816,177.670 244.088,176.575 245.300 M216.390 246.319 L 216.583 248.200 216.719 246.647 C 216.793 245.793,216.707 244.947,216.526 244.766 C 216.345 244.585,216.284 245.284,216.390 246.319 M173.200 250.884 C 173.200 251.224,173.499 251.749,173.865 252.051 C 174.474 252.553,174.487 252.515,174.011 251.600 C 173.314 250.259,173.200 250.158,173.200 250.884 M226.705 250.683 C 227.202 250.779,227.922 250.775,228.305 250.675 C 228.687 250.575,228.280 250.496,227.400 250.501 C 226.520 250.505,226.207 250.587,226.705 250.683 M134.909 252.400 C 134.909 253.390,134.987 253.795,135.082 253.300 C 135.178 252.805,135.178 251.995,135.082 251.500 C 134.987 251.005,134.909 251.410,134.909 252.400 M247.701 253.400 C 247.705 254.280,247.787 254.593,247.883 254.095 C 247.979 253.598,247.975 252.878,247.875 252.495 C 247.775 252.113,247.696 252.520,247.701 253.400 M156.109 254.000 C 156.109 254.990,156.187 255.395,156.282 254.900 C 156.378 254.405,156.378 253.595,156.282 253.100 C 156.187 252.605,156.109 253.010,156.109 254.000 M193.656 253.200 C 193.656 253.530,193.811 254.160,194.000 254.600 C 194.217 255.104,194.344 255.178,194.344 254.800 C 194.344 254.470,194.189 253.840,194.000 253.400 C 193.783 252.896,193.656 252.822,193.656 253.200 M315.600 253.944 C 315.600 254.124,316.050 254.477,316.600 254.727 C 317.150 254.978,317.600 255.036,317.600 254.856 C 317.600 254.676,317.150 254.323,316.600 254.073 C 316.050 253.822,315.600 253.764,315.600 253.944 M208.460 255.020 C 208.401 256.223,208.982 257.200,209.756 257.200 C 209.975 257.200,209.860 256.975,209.501 256.700 C 209.143 256.425,208.776 255.660,208.685 255.000 L 208.520 253.800 208.460 255.020 M266.206 254.865 C 266.375 255.309,266.216 255.593,265.729 255.719 C 265.104 255.880,265.096 255.914,265.676 255.954 C 266.570 256.015,267.012 255.251,266.421 254.665 C 266.064 254.311,266.013 254.358,266.206 254.865 M221.500 257.082 C 221.995 257.178,222.805 257.178,223.300 257.082 C 223.795 256.987,223.390 256.909,222.400 256.909 C 221.410 256.909,221.005 256.987,221.500 257.082 M257.500 257.082 C 257.995 257.178,258.805 257.178,259.300 257.082 C 259.795 256.987,259.390 256.909,258.400 256.909 C 257.410 256.909,257.005 256.987,257.500 257.082 M199.905 260.283 C 200.402 260.379,201.122 260.375,201.505 260.275 C 201.887 260.175,201.480 260.096,200.600 260.101 C 199.720 260.105,199.407 260.187,199.905 260.283 M177.775 262.500 L 176.600 263.800 177.900 262.625 C 179.112 261.530,179.384 261.200,179.075 261.200 C 179.006 261.200,178.421 261.785,177.775 262.500 M288.575 265.700 L 287.400 267.000 288.700 265.825 C 289.415 265.179,290.000 264.594,290.000 264.525 C 290.000 264.216,289.670 264.488,288.575 265.700 M126.542 265.294 C 126.438 265.462,127.668 265.575,129.276 265.546 C 132.287 265.489,132.057 265.326,128.665 265.111 C 127.601 265.044,126.646 265.126,126.542 265.294 M104.111 274.900 C 103.152 276.140,103.164 276.515,104.135 275.630 C 104.721 275.097,105.200 274.602,105.200 274.530 C 105.200 274.200,104.458 274.452,104.111 274.900 M299.200 274.675 C 299.200 275.120,300.735 276.624,300.924 276.364 C 300.990 276.274,300.629 275.766,300.122 275.237 C 299.615 274.707,299.200 274.454,299.200 274.675 M205.881 275.460 C 206.625 275.621,206.785 275.973,206.911 277.725 L 207.060 279.800 207.030 277.600 C 207.002 275.546,206.934 275.396,206.000 275.334 C 205.156 275.279,205.138 275.299,205.881 275.460 M184.901 279.000 C 184.905 279.880,184.987 280.193,185.083 279.695 C 185.179 279.198,185.175 278.478,185.075 278.095 C 184.975 277.713,184.896 278.120,184.901 279.000 M194.958 283.000 C 194.958 286.080,195.021 287.287,195.097 285.682 C 195.173 284.078,195.173 281.558,195.096 280.082 C 195.019 278.607,194.957 279.920,194.958 283.000 M201.352 278.181 C 201.049 278.970,201.503 279.610,202.324 279.554 C 202.896 279.514,202.887 279.478,202.263 279.317 C 201.768 279.189,201.591 278.876,201.725 278.364 C 201.959 277.470,201.677 277.333,201.352 278.181 M191.750 283.000 C 191.751 285.420,191.816 286.358,191.896 285.085 C 191.976 283.812,191.975 281.832,191.894 280.685 C 191.814 279.538,191.749 280.580,191.750 283.000 M203.598 285.319 L 203.797 291.000 203.911 285.632 C 203.973 282.680,203.884 280.123,203.712 279.951 C 203.540 279.778,203.489 282.194,203.598 285.319 M96.723 281.100 C 95.960 281.989,95.495 282.800,95.749 282.800 C 95.857 282.800,96.330 282.260,96.800 281.600 C 97.732 280.291,97.684 279.981,96.723 281.100 M206.901 281.800 C 206.905 282.680,206.987 282.993,207.083 282.495 C 207.179 281.998,207.175 281.278,207.075 280.895 C 206.975 280.513,206.896 280.920,206.901 281.800 M307.376 281.200 C 307.728 281.750,308.184 282.200,308.390 282.200 C 308.597 282.200,309.038 282.560,309.370 283.000 C 309.703 283.440,309.980 283.603,309.987 283.362 C 309.994 283.121,309.640 282.598,309.200 282.200 C 308.760 281.802,308.400 281.614,308.400 281.782 C 308.400 281.951,308.026 281.664,307.568 281.144 L 306.736 280.200 307.376 281.200 M94.000 283.400 C 93.722 283.735,93.679 284.000,93.902 284.000 C 94.122 284.000,94.526 283.730,94.800 283.400 C 95.078 283.065,95.121 282.800,94.898 282.800 C 94.678 282.800,94.274 283.070,94.000 283.400 M206.901 287.000 C 206.905 287.880,206.987 288.193,207.083 287.695 C 207.179 287.198,207.175 286.478,207.075 286.095 C 206.975 285.713,206.896 286.120,206.901 287.000 M217.293 289.600 C 217.293 290.370,217.375 290.685,217.476 290.300 C 217.576 289.915,217.576 289.285,217.476 288.900 C 217.375 288.515,217.293 288.830,217.293 289.600 M102.575 290.900 L 101.400 292.200 102.700 291.025 C 103.912 289.930,104.184 289.600,103.875 289.600 C 103.806 289.600,103.221 290.185,102.575 290.900 M106.040 295.758 C 105.378 296.462,105.270 296.796,105.632 297.020 C 105.948 297.215,106.021 297.158,105.836 296.859 C 105.678 296.602,105.815 296.292,106.144 296.166 C 106.471 296.041,106.836 295.682,106.957 295.369 C 107.261 294.576,107.077 294.654,106.040 295.758 M115.178 296.300 L 113.800 297.800 115.300 296.422 C 116.696 295.138,116.984 294.800,116.678 294.800 C 116.612 294.800,115.937 295.475,115.178 296.300 M307.775 297.300 L 306.600 298.600 307.900 297.425 C 308.615 296.779,309.200 296.194,309.200 296.125 C 309.200 295.816,308.870 296.088,307.775 297.300 M192.100 302.287 C 192.705 302.378,193.695 302.378,194.300 302.287 C 194.905 302.195,194.410 302.120,193.200 302.120 C 191.990 302.120,191.495 302.195,192.100 302.287 M204.707 302.290 C 205.426 302.379,206.506 302.377,207.107 302.286 C 207.708 302.195,207.120 302.122,205.800 302.124 C 204.480 302.126,203.988 302.201,204.707 302.290 M317.978 308.700 L 316.600 310.200 318.100 308.822 C 319.496 307.538,319.784 307.200,319.478 307.200 C 319.412 307.200,318.737 307.875,317.978 308.700 M132.200 308.400 C 132.064 308.620,132.098 308.803,132.276 308.806 C 132.454 308.809,132.330 309.003,132.000 309.237 C 131.603 309.518,131.579 309.613,131.930 309.520 C 132.221 309.443,132.431 309.225,132.396 309.035 C 132.361 308.845,132.572 308.537,132.866 308.351 C 133.230 308.120,133.248 308.010,132.924 308.006 C 132.662 308.003,132.336 308.180,132.200 308.400 M242.905 318.200 C 243.141 318.970,243.467 319.600,243.630 319.600 C 243.792 319.600,243.732 318.970,243.495 318.200 C 243.259 317.430,242.933 316.800,242.770 316.800 C 242.608 316.800,242.668 317.430,242.905 318.200 M188.900 317.476 C 189.285 317.576,189.915 317.576,190.300 317.476 C 190.685 317.375,190.370 317.293,189.600 317.293 C 188.830 317.293,188.515 317.375,188.900 317.476 M201.712 317.895 C 202.764 317.977,204.384 317.976,205.312 317.892 C 206.240 317.808,205.380 317.741,203.400 317.742 C 201.420 317.743,200.660 317.812,201.712 317.895 M217.139 319.583 C 217.062 320.673,217.117 321.978,217.260 322.483 C 217.407 323.000,217.538 322.135,217.560 320.500 C 217.606 317.190,217.345 316.623,217.139 319.583 M192.909 320.400 C 192.909 321.390,192.987 321.795,193.082 321.300 C 193.178 320.805,193.178 319.995,193.082 319.500 C 192.987 319.005,192.909 319.410,192.909 320.400 M186.909 321.600 C 186.909 322.590,186.987 322.995,187.082 322.500 C 187.178 322.005,187.178 321.195,187.082 320.700 C 186.987 320.205,186.909 320.610,186.909 321.600 M243.722 320.400 C 243.845 320.730,244.260 321.945,244.645 323.100 C 245.031 324.255,245.491 325.200,245.667 325.200 C 246.046 325.200,244.485 320.784,243.901 320.200 C 243.633 319.933,243.574 320.000,243.722 320.400 M197.875 321.859 C 198.357 321.964,198.842 322.353,198.952 322.725 C 199.098 323.211,199.131 323.176,199.073 322.600 C 199.018 322.057,198.672 321.779,197.996 321.734 C 197.161 321.680,197.142 321.700,197.875 321.859 M204.953 328.600 C 204.953 331.240,205.018 332.268,205.097 330.884 C 205.175 329.501,205.174 327.341,205.095 326.084 C 205.016 324.828,204.952 325.960,204.953 328.600 M192.493 326.000 C 192.493 326.770,192.575 327.085,192.676 326.700 C 192.776 326.315,192.776 325.685,192.676 325.300 C 192.575 324.915,192.493 325.230,192.493 326.000 M186.501 326.600 C 186.505 327.480,186.587 327.793,186.683 327.295 C 186.779 326.798,186.775 326.078,186.675 325.695 C 186.575 325.313,186.496 325.720,186.501 326.600 M175.260 329.067 C 175.227 329.544,175.084 330.264,174.941 330.667 C 174.742 331.231,174.795 331.296,175.172 330.949 C 175.442 330.701,175.585 329.981,175.491 329.349 C 175.370 328.539,175.302 328.456,175.260 329.067 M192.101 331.000 C 192.105 331.880,192.187 332.193,192.283 331.695 C 192.379 331.198,192.375 330.478,192.275 330.095 C 192.175 329.713,192.096 330.120,192.101 331.000 M184.705 344.283 C 185.202 344.379,185.922 344.375,186.305 344.275 C 186.687 344.175,186.280 344.096,185.400 344.101 C 184.520 344.105,184.207 344.187,184.705 344.283 M214.305 344.283 C 214.802 344.379,215.522 344.375,215.905 344.275 C 216.287 344.175,215.880 344.096,215.000 344.101 C 214.120 344.105,213.807 344.187,214.305 344.283 M189.500 344.682 C 189.995 344.778,190.805 344.778,191.300 344.682 C 191.795 344.587,191.390 344.509,190.400 344.509 C 189.410 344.509,189.005 344.587,189.500 344.682 M209.300 344.676 C 209.685 344.776,210.315 344.776,210.700 344.676 C 211.085 344.575,210.770 344.493,210.000 344.493 C 209.230 344.493,208.915 344.575,209.300 344.676 " stroke="none" fill="#c0c1e4" fill-rule="evenodd"></path><path id="path5" d="M95.787 97.300 L 93.400 99.800 95.900 97.413 C 97.275 96.099,98.400 94.974,98.400 94.913 C 98.400 94.617,98.005 94.978,95.787 97.300 M224.778 102.300 L 223.400 103.800 224.900 102.422 C 226.296 101.138,226.584 100.800,226.278 100.800 C 226.212 100.800,225.537 101.475,224.778 102.300 M233.693 106.800 C 233.693 107.570,233.775 107.885,233.876 107.500 C 233.976 107.115,233.976 106.485,233.876 106.100 C 233.775 105.715,233.693 106.030,233.693 106.800 M159.342 116.600 C 159.341 118.580,159.408 119.440,159.492 118.512 C 159.576 117.584,159.577 115.964,159.495 114.912 C 159.412 113.860,159.343 114.620,159.342 116.600 M253.293 117.200 C 253.293 117.970,253.375 118.285,253.476 117.900 C 253.576 117.515,253.576 116.885,253.476 116.500 C 253.375 116.115,253.293 116.430,253.293 117.200 M234.570 145.000 C 234.571 149.840,234.629 151.765,234.699 149.278 C 234.769 146.791,234.769 142.831,234.698 140.478 C 234.628 138.125,234.570 140.160,234.570 145.000 M226.093 140.000 C 226.093 140.770,226.175 141.085,226.276 140.700 C 226.376 140.315,226.376 139.685,226.276 139.300 C 226.175 138.915,226.093 139.230,226.093 140.000 M206.501 150.200 C 206.505 151.080,206.587 151.393,206.683 150.895 C 206.779 150.398,206.775 149.678,206.675 149.295 C 206.575 148.913,206.496 149.320,206.501 150.200 M153.324 163.800 C 153.326 165.120,153.401 165.612,153.490 164.893 C 153.579 164.174,153.577 163.094,153.486 162.493 C 153.395 161.892,153.322 162.480,153.324 163.800 M253.314 173.400 C 253.317 174.500,253.395 174.903,253.487 174.295 C 253.579 173.686,253.577 172.786,253.482 172.295 C 253.387 171.803,253.311 172.300,253.314 173.400 M153.309 175.200 C 153.309 176.190,153.387 176.595,153.482 176.100 C 153.578 175.605,153.578 174.795,153.482 174.300 C 153.387 173.805,153.309 174.210,153.309 175.200 M196.493 175.600 C 196.493 176.370,196.575 176.685,196.676 176.300 C 196.776 175.915,196.776 175.285,196.676 174.900 C 196.575 174.515,196.493 174.830,196.493 175.600 M268.931 183.800 C 268.933 185.340,269.005 185.921,269.092 185.091 C 269.179 184.261,269.177 183.001,269.089 182.291 C 269.000 181.581,268.929 182.260,268.931 183.800 M251.293 205.600 C 251.293 206.370,251.375 206.685,251.476 206.300 C 251.576 205.915,251.576 205.285,251.476 204.900 C 251.375 204.515,251.293 204.830,251.293 205.600 M212.900 224.676 C 213.285 224.776,213.915 224.776,214.300 224.676 C 214.685 224.575,214.370 224.493,213.600 224.493 C 212.830 224.493,212.515 224.575,212.900 224.676 M134.509 252.400 C 134.509 253.390,134.587 253.795,134.682 253.300 C 134.778 252.805,134.778 251.995,134.682 251.500 C 134.587 251.005,134.509 251.410,134.509 252.400 M127.505 265.883 C 128.002 265.979,128.722 265.975,129.105 265.875 C 129.487 265.775,129.080 265.696,128.200 265.701 C 127.320 265.705,127.007 265.787,127.505 265.883 M108.175 285.300 L 107.000 286.600 108.300 285.425 C 109.512 284.330,109.784 284.000,109.475 284.000 C 109.406 284.000,108.821 284.585,108.175 285.300 M119.375 291.300 L 118.200 292.600 119.500 291.425 C 120.712 290.330,120.984 290.000,120.675 290.000 C 120.606 290.000,120.021 290.585,119.375 291.300 M114.175 296.900 L 113.000 298.200 114.300 297.025 C 115.512 295.930,115.784 295.600,115.475 295.600 C 115.406 295.600,114.821 296.185,114.175 296.900 M204.524 326.600 C 204.526 327.920,204.601 328.412,204.690 327.693 C 204.779 326.974,204.777 325.894,204.686 325.293 C 204.595 324.692,204.522 325.280,204.524 326.600 " stroke="none" fill="#7c74a0" fill-rule="evenodd"></path><path id="path6" d="M196.000 65.600 L 189.400 65.830 195.876 65.915 C 199.857 65.967,202.448 65.846,202.600 65.600 C 202.736 65.380,202.792 65.238,202.724 65.285 C 202.656 65.332,199.630 65.473,196.000 65.600 M214.300 65.898 C 216.115 65.972,219.085 65.972,220.900 65.898 C 222.715 65.823,221.230 65.763,217.600 65.763 C 213.970 65.763,212.485 65.823,214.300 65.898 M147.978 98.300 L 146.600 99.800 148.100 98.422 C 148.925 97.663,149.600 96.988,149.600 96.922 C 149.600 96.616,149.262 96.904,147.978 98.300 M234.109 115.200 C 234.109 116.190,234.187 116.595,234.282 116.100 C 234.378 115.605,234.378 114.795,234.282 114.300 C 234.187 113.805,234.109 114.210,234.109 115.200 M155.301 121.400 C 155.305 122.280,155.387 122.593,155.483 122.095 C 155.579 121.598,155.575 120.878,155.475 120.495 C 155.375 120.113,155.296 120.520,155.301 121.400 M264.942 126.600 C 264.941 128.580,265.008 129.440,265.092 128.512 C 265.176 127.584,265.177 125.964,265.095 124.912 C 265.012 123.860,264.943 124.620,264.942 126.600 M234.554 131.600 C 234.554 134.350,234.618 135.475,234.696 134.100 C 234.774 132.725,234.774 130.475,234.696 129.100 C 234.618 127.725,234.554 128.850,234.554 131.600 M158.893 132.000 C 158.893 132.770,158.975 133.085,159.076 132.700 C 159.176 132.315,159.176 131.685,159.076 131.300 C 158.975 130.915,158.893 131.230,158.893 132.000 M154.501 135.800 C 154.505 136.680,154.587 136.993,154.683 136.495 C 154.779 135.998,154.775 135.278,154.675 134.895 C 154.575 134.513,154.496 134.920,154.501 135.800 M264.493 142.000 C 264.493 142.770,264.575 143.085,264.676 142.700 C 264.776 142.315,264.776 141.685,264.676 141.300 C 264.575 140.915,264.493 141.230,264.493 142.000 M154.101 142.600 C 154.105 143.480,154.187 143.793,154.283 143.295 C 154.379 142.798,154.375 142.078,154.275 141.695 C 154.175 141.313,154.096 141.720,154.101 142.600 M264.093 149.600 C 264.093 150.370,264.175 150.685,264.276 150.300 C 264.376 149.915,264.376 149.285,264.276 148.900 C 264.175 148.515,264.093 148.830,264.093 149.600 M196.093 151.200 C 196.093 151.970,196.175 152.285,196.276 151.900 C 196.376 151.515,196.376 150.885,196.276 150.500 C 196.175 150.115,196.093 150.430,196.093 151.200 M263.693 154.400 C 263.693 155.170,263.775 155.485,263.876 155.100 C 263.976 154.715,263.976 154.085,263.876 153.700 C 263.775 153.315,263.693 153.630,263.693 154.400 M219.091 158.289 C 219.801 158.377,221.061 158.379,221.891 158.292 C 222.721 158.205,222.140 158.133,220.600 158.131 C 219.060 158.129,218.381 158.200,219.091 158.289 M234.472 161.100 L 234.544 163.400 234.698 161.408 C 234.782 160.312,235.065 159.280,235.326 159.114 C 235.643 158.912,235.568 158.810,235.100 158.806 C 234.506 158.801,234.411 159.147,234.472 161.100 M196.559 168.800 C 196.559 171.990,196.621 173.295,196.697 171.700 C 196.773 170.105,196.773 167.495,196.697 165.900 C 196.621 164.305,196.559 165.610,196.559 168.800 M234.101 171.400 C 234.105 172.280,234.187 172.593,234.283 172.095 C 234.379 171.598,234.375 170.878,234.275 170.495 C 234.175 170.113,234.096 170.520,234.101 171.400 M324.909 171.600 C 324.909 172.590,324.987 172.995,325.082 172.500 C 325.178 172.005,325.178 171.195,325.082 170.700 C 324.987 170.205,324.909 170.610,324.909 171.600 M74.893 172.400 C 74.893 173.170,74.975 173.485,75.076 173.100 C 75.176 172.715,75.176 172.085,75.076 171.700 C 74.975 171.315,74.893 171.630,74.893 172.400 M74.893 184.400 C 74.893 185.170,74.975 185.485,75.076 185.100 C 75.176 184.715,75.176 184.085,75.076 183.700 C 74.975 183.315,74.893 183.630,74.893 184.400 M227.309 186.000 C 227.309 186.990,227.387 187.395,227.482 186.900 C 227.578 186.405,227.578 185.595,227.482 185.100 C 227.387 184.605,227.309 185.010,227.309 186.000 M54.140 200.000 C 54.140 201.870,54.209 202.635,54.293 201.700 C 54.377 200.765,54.377 199.235,54.293 198.300 C 54.209 197.365,54.140 198.130,54.140 200.000 M223.700 255.076 C 224.085 255.176,224.715 255.176,225.100 255.076 C 225.485 254.975,225.170 254.893,224.400 254.893 C 223.630 254.893,223.315 254.975,223.700 255.076 M189.900 261.082 C 190.395 261.178,191.205 261.178,191.700 261.082 C 192.195 260.987,191.790 260.909,190.800 260.909 C 189.810 260.909,189.405 260.987,189.900 261.082 M114.383 268.500 C 116.041 270.266,116.400 270.584,116.400 270.283 C 116.400 270.219,115.545 269.364,114.500 268.383 L 112.600 266.600 114.383 268.500 M195.350 277.787 C 195.226 278.110,195.217 278.605,195.331 278.887 C 195.444 279.169,195.551 279.010,195.568 278.533 C 195.586 278.057,195.825 277.576,196.100 277.465 C 196.492 277.307,196.489 277.256,196.087 277.232 C 195.806 277.214,195.474 277.464,195.350 277.787 M185.293 279.200 C 185.293 279.970,185.375 280.285,185.476 279.900 C 185.576 279.515,185.576 278.885,185.476 278.500 C 185.375 278.115,185.293 278.430,185.293 279.200 M203.198 284.919 L 203.397 290.200 203.511 285.233 C 203.574 282.501,203.485 280.124,203.313 279.951 C 203.141 279.779,203.089 282.014,203.198 284.919 M195.342 283.400 C 195.341 285.380,195.408 286.240,195.492 285.312 C 195.576 284.384,195.577 282.764,195.495 281.712 C 195.412 280.660,195.343 281.420,195.342 283.400 M114.434 284.247 C 114.965 284.933,115.480 285.423,115.579 285.335 C 115.677 285.247,115.243 284.686,114.613 284.088 L 113.469 283.000 114.434 284.247 M283.775 284.500 L 282.600 285.800 283.900 284.625 C 284.615 283.979,285.200 283.394,285.200 283.325 C 285.200 283.016,284.870 283.288,283.775 284.500 M94.400 300.925 C 94.400 300.994,94.985 301.579,95.700 302.225 L 97.000 303.400 95.825 302.100 C 94.730 300.888,94.400 300.616,94.400 300.925 M310.975 315.300 L 309.800 316.600 311.100 315.425 C 311.815 314.779,312.400 314.194,312.400 314.125 C 312.400 313.816,312.070 314.088,310.975 315.300 M188.900 317.876 C 189.285 317.976,189.915 317.976,190.300 317.876 C 190.685 317.775,190.370 317.693,189.600 317.693 C 188.830 317.693,188.515 317.775,188.900 317.876 M200.700 318.282 C 201.195 318.378,202.005 318.378,202.500 318.282 C 202.995 318.187,202.590 318.109,201.600 318.109 C 200.610 318.109,200.205 318.187,200.700 318.282 M187.293 321.200 C 187.293 321.970,187.375 322.285,187.476 321.900 C 187.576 321.515,187.576 320.885,187.476 320.500 C 187.375 320.115,187.293 320.430,187.293 321.200 M204.528 331.200 C 204.528 332.630,204.601 333.215,204.689 332.500 C 204.778 331.785,204.778 330.615,204.689 329.900 C 204.601 329.185,204.528 329.770,204.528 331.200 M198.300 345.493 C 199.235 345.577,200.765 345.577,201.700 345.493 C 202.635 345.409,201.870 345.340,200.000 345.340 C 198.130 345.340,197.365 345.409,198.300 345.493 M195.705 360.287 C 196.314 360.379,197.214 360.377,197.705 360.282 C 198.197 360.187,197.700 360.111,196.600 360.114 C 195.500 360.117,195.097 360.195,195.705 360.287 " stroke="none" fill="#7c7c84" fill-rule="evenodd"></path><path id="path7" d="M82.175 90.900 L 81.000 92.200 82.300 91.025 C 83.512 89.930,83.784 89.600,83.475 89.600 C 83.406 89.600,82.821 90.185,82.175 90.900 M147.775 98.900 L 146.600 100.200 147.900 99.025 C 149.112 97.930,149.384 97.600,149.075 97.600 C 149.006 97.600,148.421 98.185,147.775 98.900 M264.093 110.800 C 264.093 111.570,264.175 111.885,264.276 111.500 C 264.376 111.115,264.376 110.485,264.276 110.100 C 264.175 109.715,264.093 110.030,264.093 110.800 M155.758 115.400 C 155.758 118.480,155.821 119.687,155.897 118.082 C 155.973 116.478,155.973 113.958,155.896 112.482 C 155.819 111.007,155.757 112.320,155.758 115.400 M264.534 120.800 C 264.534 122.450,264.605 123.125,264.691 122.300 C 264.778 121.475,264.778 120.125,264.691 119.300 C 264.605 118.475,264.534 119.150,264.534 120.800 M234.101 125.400 C 234.105 126.280,234.187 126.593,234.283 126.095 C 234.379 125.598,234.375 124.878,234.275 124.495 C 234.175 124.113,234.096 124.520,234.101 125.400 M254.114 131.400 C 254.117 132.500,254.195 132.903,254.287 132.295 C 254.379 131.686,254.377 130.786,254.282 130.295 C 254.187 129.803,254.111 130.300,254.114 131.400 M264.537 133.000 C 264.539 134.760,264.609 135.430,264.693 134.489 C 264.778 133.549,264.777 132.109,264.691 131.289 C 264.605 130.470,264.536 131.240,264.537 133.000 M264.093 144.400 C 264.093 145.170,264.175 145.485,264.276 145.100 C 264.376 144.715,264.376 144.085,264.276 143.700 C 264.175 143.315,264.093 143.630,264.093 144.400 M196.520 155.600 C 196.520 156.810,196.595 157.305,196.687 156.700 C 196.778 156.095,196.778 155.105,196.687 154.500 C 196.595 153.895,196.520 154.390,196.520 155.600 M153.724 156.200 C 153.726 157.520,153.801 158.012,153.890 157.293 C 153.979 156.574,153.977 155.494,153.886 154.893 C 153.795 154.292,153.722 154.880,153.724 156.200 M254.114 156.200 C 254.117 157.300,254.195 157.703,254.287 157.095 C 254.379 156.486,254.377 155.586,254.282 155.095 C 254.187 154.603,254.111 155.100,254.114 156.200 M227.777 170.600 C 227.777 177.200,227.832 179.956,227.899 176.725 C 227.966 173.493,227.966 168.093,227.899 164.725 C 227.832 161.356,227.777 164.000,227.777 170.600 M74.514 175.000 C 74.517 176.100,74.595 176.503,74.687 175.895 C 74.779 175.286,74.777 174.386,74.682 173.895 C 74.587 173.403,74.511 173.900,74.514 175.000 M325.342 176.600 C 325.341 178.580,325.408 179.440,325.492 178.512 C 325.576 177.584,325.577 175.964,325.495 174.912 C 325.412 173.860,325.343 174.620,325.342 176.600 M74.509 181.600 C 74.509 182.590,74.587 182.995,74.682 182.500 C 74.778 182.005,74.778 181.195,74.682 180.700 C 74.587 180.205,74.509 180.610,74.509 181.600 M227.293 191.200 C 227.293 191.970,227.375 192.285,227.476 191.900 C 227.576 191.515,227.576 190.885,227.476 190.500 C 227.375 190.115,227.293 190.430,227.293 191.200 M54.509 195.200 C 54.509 196.190,54.587 196.595,54.682 196.100 C 54.778 195.605,54.778 194.795,54.682 194.300 C 54.587 193.805,54.509 194.210,54.509 195.200 M345.359 201.200 C 345.359 204.390,345.421 205.695,345.497 204.100 C 345.573 202.505,345.573 199.895,345.497 198.300 C 345.421 196.705,345.359 198.010,345.359 201.200 M54.514 205.000 C 54.517 206.100,54.595 206.503,54.687 205.895 C 54.779 205.286,54.777 204.386,54.682 203.895 C 54.587 203.403,54.511 203.900,54.514 205.000 M180.700 229.082 C 181.195 229.178,182.005 229.178,182.500 229.082 C 182.995 228.987,182.590 228.909,181.600 228.909 C 180.610 228.909,180.205 228.987,180.700 229.082 M172.901 253.800 C 172.905 254.680,172.987 254.993,173.083 254.495 C 173.179 253.998,173.175 253.278,173.075 252.895 C 172.975 252.513,172.896 252.920,172.901 253.800 M184.893 255.600 C 184.893 256.370,184.975 256.685,185.076 256.300 C 185.176 255.915,185.176 255.285,185.076 254.900 C 184.975 254.515,184.893 254.830,184.893 255.600 M159.693 257.600 C 159.693 258.370,159.775 258.685,159.876 258.300 C 159.976 257.915,159.976 257.285,159.876 256.900 C 159.775 256.515,159.693 256.830,159.693 257.600 M196.554 283.200 C 196.554 285.950,196.618 287.075,196.696 285.700 C 196.774 284.325,196.774 282.075,196.696 280.700 C 196.618 279.325,196.554 280.450,196.554 283.200 M283.978 283.900 L 282.600 285.400 284.100 284.022 C 285.496 282.738,285.784 282.400,285.478 282.400 C 285.412 282.400,284.737 283.075,283.978 283.900 M206.893 284.400 C 206.893 285.170,206.975 285.485,207.076 285.100 C 207.176 284.715,207.176 284.085,207.076 283.700 C 206.975 283.315,206.893 283.630,206.893 284.400 M304.378 301.100 L 303.000 302.600 304.500 301.222 C 305.896 299.938,306.184 299.600,305.878 299.600 C 305.812 299.600,305.137 300.275,304.378 301.100 M88.400 315.325 C 88.400 315.394,88.985 315.979,89.700 316.625 L 91.000 317.800 89.825 316.500 C 88.730 315.288,88.400 315.016,88.400 315.325 M204.914 335.000 C 204.917 336.100,204.995 336.503,205.087 335.895 C 205.179 335.286,205.177 334.386,205.082 333.895 C 204.987 333.403,204.911 333.900,204.914 335.000 M197.717 345.097 C 199.211 345.174,201.551 345.174,202.917 345.096 C 204.282 345.018,203.060 344.955,200.200 344.955 C 197.340 344.956,196.222 345.020,197.717 345.097 " stroke="none" fill="#b4acd6" fill-rule="evenodd"></path><path id="path8" d="M206.101 145.400 C 206.105 146.280,206.187 146.593,206.283 146.095 C 206.379 145.598,206.375 144.878,206.275 144.495 C 206.175 144.113,206.096 144.520,206.101 145.400 " stroke="none" fill="#b8b8bc" fill-rule="evenodd"></path></g></svg>